M48
;Layer_Color=9474304
;FILE_FORMAT=4:4
METRIC,LZ
;TYPE=PLATED
T1F00S00C0.3000
T2F00S00C0.7100
T3F00S00C0.9000
T4F00S00C3.0000
;TYPE=NON_PLATED
T5F00S00C1.1500
T6F00S00C1.6500
T7F00S00C3.1800
%
T01
X0046276Y000749
X0048061Y0007072
X0054237Y0011272
X0056832Y0013824
X0061979Y0007992
X00628207Y00068242
X00636213Y00067541
X0064719Y0007833
X0065748Y0006641
X0066548
X006775Y0006752
X006855
X0069446Y0008199
X0066979Y0008304
X0071694Y000687
X0073689Y0006887
X0075718Y0006905
X0078857Y0006748
X0081631Y0006766
X0084146
X0086856Y0006808
X0088726Y0006869
X0090656
X0093204Y0006877
X0093375Y0009773
X0061533Y00064146
X006075Y0006763
X0038151Y0019738
X0045583Y0032231
X00462451Y00335662
X00468108Y00341318
X0046104Y003521
Y003601
X0045481Y0037493
X0045696Y0039815
X0049064Y0036761
X00496297Y00373267
X00495547Y00311727
X0048989Y0030607
X0053477Y0039754
X0055045Y0044803
T02
X002323Y0055317
X002577
X002831
T03
X0010767Y0050745
X0013307
T04
X0075652Y0033052
X0020652
T05
X0046225Y0023
T06
X0046225Y0043
T07
X00075Y000935
Y006325
M30
