G04*
G04 #@! TF.GenerationSoftware,Altium Limited,Altium Designer,20.0.13 (296)*
G04*
G04 Layer_Color=65535*
%FSLAX44Y44*%
%MOMM*%
G71*
G01*
G75*
%ADD10C,0.2540*%
%ADD11C,0.2286*%
%ADD12C,0.2032*%
%ADD13C,0.1829*%
%ADD14R,19.0500X5.0800*%
D10*
X1369718Y2792976D02*
G03*
X1369747Y2792940I12296J10041D01*
G01*
X1425702Y1620008D02*
Y1607820D01*
X1431796D01*
X1433827Y1609851D01*
Y1611883D01*
X1431796Y1613914D01*
X1425702D01*
X1431796D01*
X1433827Y1615945D01*
Y1617977D01*
X1431796Y1620008D01*
X1425702D01*
X1437890Y1607820D02*
X1441953D01*
X1439921D01*
Y1620008D01*
X1437890Y1617977D01*
X1540002Y1620008D02*
Y1607820D01*
X1546096D01*
X1548127Y1609851D01*
Y1611883D01*
X1546096Y1613914D01*
X1540002D01*
X1546096D01*
X1548127Y1615945D01*
Y1617977D01*
X1546096Y1620008D01*
X1540002D01*
X1552190Y1607820D02*
X1556253D01*
X1554221D01*
Y1620008D01*
X1552190Y1617977D01*
X1562347Y1607820D02*
X1566409D01*
X1564378D01*
Y1620008D01*
X1562347Y1617977D01*
X2016252Y1620008D02*
Y1607820D01*
X2022346D01*
X2024377Y1609851D01*
Y1611883D01*
X2022346Y1613914D01*
X2016252D01*
X2022346D01*
X2024377Y1615945D01*
Y1617977D01*
X2022346Y1620008D01*
X2016252D01*
X2034534Y1607820D02*
Y1620008D01*
X2028440Y1613914D01*
X2036565D01*
X2040628Y1609851D02*
X2042659Y1607820D01*
X2046722D01*
X2048754Y1609851D01*
Y1617977D01*
X2046722Y1620008D01*
X2042659D01*
X2040628Y1617977D01*
Y1615945D01*
X2042659Y1613914D01*
X2048754D01*
X2194052Y1620008D02*
Y1607820D01*
X2200146D01*
X2202177Y1609851D01*
Y1611883D01*
X2200146Y1613914D01*
X2194052D01*
X2200146D01*
X2202177Y1615945D01*
Y1617977D01*
X2200146Y1620008D01*
X2194052D01*
X2214365D02*
X2210303Y1617977D01*
X2206240Y1613914D01*
Y1609851D01*
X2208271Y1607820D01*
X2212334D01*
X2214365Y1609851D01*
Y1611883D01*
X2212334Y1613914D01*
X2206240D01*
X2226553Y1607820D02*
X2218428D01*
X2226553Y1615945D01*
Y1617977D01*
X2224522Y1620008D01*
X2220459D01*
X2218428Y1617977D01*
X2073402Y1620008D02*
Y1607820D01*
X2079496D01*
X2081527Y1609851D01*
Y1611883D01*
X2079496Y1613914D01*
X2073402D01*
X2079496D01*
X2081527Y1615945D01*
Y1617977D01*
X2079496Y1620008D01*
X2073402D01*
X2093715D02*
X2085590D01*
Y1613914D01*
X2089653Y1615945D01*
X2091684D01*
X2093715Y1613914D01*
Y1609851D01*
X2091684Y1607820D01*
X2087621D01*
X2085590Y1609851D01*
X2105903Y1607820D02*
X2097778D01*
X2105903Y1615945D01*
Y1617977D01*
X2103872Y1620008D01*
X2099810D01*
X2097778Y1617977D01*
X1590802Y1620008D02*
Y1607820D01*
X1596896D01*
X1598927Y1609851D01*
Y1611883D01*
X1596896Y1613914D01*
X1590802D01*
X1596896D01*
X1598927Y1615945D01*
Y1617977D01*
X1596896Y1620008D01*
X1590802D01*
X1602990Y1607820D02*
X1607053D01*
X1605021D01*
Y1620008D01*
X1602990Y1617977D01*
X1619241Y1607820D02*
Y1620008D01*
X1613147Y1613914D01*
X1621272D01*
D11*
X2687646Y2619139D02*
X2686558Y2618050D01*
X2687646Y2616962D01*
X2688735Y2618050D01*
X2687646Y2619139D01*
X2710066Y2634375D02*
X2708978Y2636552D01*
X2706801Y2638729D01*
X2704624Y2639817D01*
X2700271D01*
X2698094Y2638729D01*
X2695918Y2636552D01*
X2694829Y2634375D01*
X2693741Y2631111D01*
Y2625669D01*
X2694829Y2622404D01*
X2695918Y2620227D01*
X2698094Y2618050D01*
X2700271Y2616962D01*
X2704624D01*
X2706801Y2618050D01*
X2708978Y2620227D01*
X2710066Y2622404D01*
Y2625669D01*
X2704624D02*
X2710066D01*
X2722909Y2639817D02*
Y2616962D01*
X2715290Y2639817D02*
X2730527D01*
X2739778D02*
X2737601Y2638729D01*
X2735424Y2636552D01*
X2734336Y2634375D01*
X2733248Y2631111D01*
Y2625669D01*
X2734336Y2622404D01*
X2735424Y2620227D01*
X2737601Y2618050D01*
X2739778Y2616962D01*
X2744131D01*
X2746308Y2618050D01*
X2748484Y2620227D01*
X2749573Y2622404D01*
X2750661Y2625669D01*
Y2631111D01*
X2749573Y2634375D01*
X2748484Y2636552D01*
X2746308Y2638729D01*
X2744131Y2639817D01*
X2739778D01*
D12*
X1410495Y2710942D02*
X1403240Y2729988D01*
X1395984Y2710942D01*
X1398705Y2717291D02*
X1407774D01*
X1427637Y2727267D02*
X1425823Y2729081D01*
X1423102Y2729988D01*
X1419474D01*
X1416753Y2729081D01*
X1414939Y2727267D01*
Y2725453D01*
X1415846Y2723639D01*
X1416753Y2722732D01*
X1418567Y2721825D01*
X1424009Y2720012D01*
X1425823Y2719105D01*
X1426730Y2718198D01*
X1427637Y2716384D01*
Y2713663D01*
X1425823Y2711849D01*
X1423102Y2710942D01*
X1419474D01*
X1416753Y2711849D01*
X1414939Y2713663D01*
X1444597Y2727267D02*
X1442783Y2729081D01*
X1440062Y2729988D01*
X1436434D01*
X1433713Y2729081D01*
X1431899Y2727267D01*
Y2725453D01*
X1432806Y2723639D01*
X1433713Y2722732D01*
X1435527Y2721825D01*
X1440969Y2720012D01*
X1442783Y2719105D01*
X1443690Y2718198D01*
X1444597Y2716384D01*
Y2713663D01*
X1442783Y2711849D01*
X1440062Y2710942D01*
X1436434D01*
X1433713Y2711849D01*
X1431899Y2713663D01*
X1448859Y2729988D02*
X1456115Y2720918D01*
Y2710942D01*
X1463370Y2729988D02*
X1456115Y2720918D01*
X1480784Y2729988D02*
Y2710942D01*
Y2729988D02*
X1493481Y2710942D01*
Y2729988D02*
Y2710942D01*
X1504183Y2729988D02*
X1502369Y2729081D01*
X1500555Y2727267D01*
X1499648Y2725453D01*
X1498741Y2722732D01*
Y2718198D01*
X1499648Y2715477D01*
X1500555Y2713663D01*
X1502369Y2711849D01*
X1504183Y2710942D01*
X1507811D01*
X1509625Y2711849D01*
X1511438Y2713663D01*
X1512345Y2715477D01*
X1513252Y2718198D01*
Y2722732D01*
X1512345Y2725453D01*
X1511438Y2727267D01*
X1509625Y2729081D01*
X1507811Y2729988D01*
X1504183D01*
X1518603Y2712756D02*
X1517697Y2711849D01*
X1518603Y2710942D01*
X1519510Y2711849D01*
X1518603Y2712756D01*
X1524589Y2723639D02*
X1523682Y2722732D01*
X1524589Y2721825D01*
X1525496Y2722732D01*
X1524589Y2723639D01*
Y2712756D02*
X1523682Y2711849D01*
X1524589Y2710942D01*
X1525496Y2711849D01*
X1524589Y2712756D01*
X1544633Y2729988D02*
X1557330Y2710942D01*
Y2729988D02*
X1544633Y2710942D01*
X1561593Y2729988D02*
X1574290Y2710942D01*
Y2729988D02*
X1561593Y2710942D01*
X1578553Y2729988D02*
X1591250Y2710942D01*
Y2729988D02*
X1578553Y2710942D01*
X1595513Y2729988D02*
X1608210Y2710942D01*
Y2729988D02*
X1595513Y2710942D01*
X1612473Y2729988D02*
X1625170Y2710942D01*
Y2729988D02*
X1612473Y2710942D01*
X1629433Y2729988D02*
X1642130Y2710942D01*
Y2729988D02*
X1629433Y2710942D01*
X1023874Y2724908D02*
Y2705862D01*
Y2724908D02*
X1032037D01*
X1034757Y2724001D01*
X1035664Y2723094D01*
X1036571Y2721280D01*
Y2719466D01*
X1035664Y2717652D01*
X1034757Y2716745D01*
X1032037Y2715838D01*
X1023874D01*
X1030223D02*
X1036571Y2705862D01*
X1052624Y2724908D02*
X1040834D01*
Y2705862D01*
X1052624D01*
X1040834Y2715838D02*
X1048090D01*
X1055799Y2724908D02*
X1063054Y2705862D01*
X1070310Y2724908D02*
X1063054Y2705862D01*
X1036571Y2797752D02*
X1034757Y2799566D01*
X1032037Y2800473D01*
X1028409D01*
X1025688Y2799566D01*
X1023874Y2797752D01*
Y2795938D01*
X1024781Y2794124D01*
X1025688Y2793217D01*
X1027502Y2792310D01*
X1032943Y2790497D01*
X1034757Y2789590D01*
X1035664Y2788683D01*
X1036571Y2786869D01*
Y2784148D01*
X1034757Y2782334D01*
X1032037Y2781427D01*
X1028409D01*
X1025688Y2782334D01*
X1023874Y2784148D01*
X1040834Y2778706D02*
X1053531Y2800473D01*
X1054801D02*
Y2781427D01*
Y2800473D02*
X1067498Y2781427D01*
Y2800473D02*
Y2781427D01*
X1406867Y2805101D02*
X1406142Y2806552D01*
X1404691Y2808003D01*
X1403240Y2808729D01*
X1400337D01*
X1398886Y2808003D01*
X1397435Y2806552D01*
X1396710Y2805101D01*
X1395984Y2802924D01*
Y2799297D01*
X1396710Y2797120D01*
X1397435Y2795669D01*
X1398886Y2794218D01*
X1400337Y2793492D01*
X1403240D01*
X1404691Y2794218D01*
X1406142Y2795669D01*
X1406867Y2797120D01*
X1434991Y2808003D02*
Y2808910D01*
X1435898Y2810724D01*
X1436805Y2811631D01*
X1438619Y2812538D01*
X1442247D01*
X1444060Y2811631D01*
X1444967Y2810724D01*
X1445874Y2808910D01*
Y2807096D01*
X1444967Y2805282D01*
X1443154Y2802562D01*
X1434084Y2793492D01*
X1446781D01*
X1456486Y2812538D02*
X1453765Y2811631D01*
X1451951Y2808910D01*
X1451044Y2804375D01*
Y2801654D01*
X1451951Y2797120D01*
X1453765Y2794399D01*
X1456486Y2793492D01*
X1458300D01*
X1461020Y2794399D01*
X1462834Y2797120D01*
X1463741Y2801654D01*
Y2804375D01*
X1462834Y2808910D01*
X1461020Y2811631D01*
X1458300Y2812538D01*
X1456486D01*
X1473446D02*
X1470725Y2811631D01*
X1468911Y2808910D01*
X1468004Y2804375D01*
Y2801654D01*
X1468911Y2797120D01*
X1470725Y2794399D01*
X1473446Y2793492D01*
X1475260D01*
X1477980Y2794399D01*
X1479794Y2797120D01*
X1480701Y2801654D01*
Y2804375D01*
X1479794Y2808910D01*
X1477980Y2811631D01*
X1475260Y2812538D01*
X1473446D01*
X1485871Y2808003D02*
Y2808910D01*
X1486778Y2810724D01*
X1487685Y2811631D01*
X1489498Y2812538D01*
X1493126D01*
X1494940Y2811631D01*
X1495847Y2810724D01*
X1496754Y2808910D01*
Y2807096D01*
X1495847Y2805282D01*
X1494033Y2802562D01*
X1484964Y2793492D01*
X1497661D01*
X1530493Y2808003D02*
X1529586Y2809817D01*
X1527772Y2811631D01*
X1525958Y2812538D01*
X1522330D01*
X1520516Y2811631D01*
X1518702Y2809817D01*
X1517795Y2808003D01*
X1516888Y2805282D01*
Y2800748D01*
X1517795Y2798027D01*
X1518702Y2796213D01*
X1520516Y2794399D01*
X1522330Y2793492D01*
X1525958D01*
X1527772Y2794399D01*
X1529586Y2796213D01*
X1530493Y2798027D01*
X1541285Y2812538D02*
X1539471Y2811631D01*
X1537657Y2809817D01*
X1536751Y2808003D01*
X1535844Y2805282D01*
Y2800748D01*
X1536751Y2798027D01*
X1537657Y2796213D01*
X1539471Y2794399D01*
X1541285Y2793492D01*
X1544913D01*
X1546727Y2794399D01*
X1548541Y2796213D01*
X1549448Y2798027D01*
X1550355Y2800748D01*
Y2805282D01*
X1549448Y2808003D01*
X1548541Y2809817D01*
X1546727Y2811631D01*
X1544913Y2812538D01*
X1541285D01*
X1554799D02*
Y2793492D01*
Y2812538D02*
X1562054Y2793492D01*
X1569310Y2812538D02*
X1562054Y2793492D01*
X1569310Y2812538D02*
Y2793492D01*
X1574752Y2802562D02*
X1582914D01*
X1585635Y2803468D01*
X1586542Y2804375D01*
X1587449Y2806189D01*
Y2808910D01*
X1586542Y2810724D01*
X1585635Y2811631D01*
X1582914Y2812538D01*
X1574752D01*
Y2793492D01*
X1606223D02*
X1598967Y2812538D01*
X1591712Y2793492D01*
X1594433Y2799841D02*
X1603502D01*
X1610667Y2812538D02*
Y2793492D01*
Y2812538D02*
X1623364Y2793492D01*
Y2812538D02*
Y2793492D01*
X1628625Y2812538D02*
X1635880Y2803468D01*
Y2793492D01*
X1643136Y2812538D02*
X1635880Y2803468D01*
X1660549Y2812538D02*
Y2793492D01*
Y2812538D02*
X1673246Y2793492D01*
Y2812538D02*
Y2793492D01*
X1693018D02*
X1685762Y2812538D01*
X1678507Y2793492D01*
X1681227Y2799841D02*
X1690297D01*
X1697462Y2812538D02*
Y2793492D01*
Y2812538D02*
X1704717Y2793492D01*
X1711973Y2812538D02*
X1704717Y2793492D01*
X1711973Y2812538D02*
Y2793492D01*
X1729205Y2812538D02*
X1717415D01*
Y2793492D01*
X1729205D01*
X1717415Y2803468D02*
X1724670D01*
X1395984Y2768088D02*
Y2749042D01*
Y2768088D02*
X1404147D01*
X1406867Y2767181D01*
X1407774Y2766274D01*
X1408681Y2764460D01*
Y2762646D01*
X1407774Y2760832D01*
X1406867Y2759926D01*
X1404147Y2759018D01*
X1395984D02*
X1404147D01*
X1406867Y2758112D01*
X1407774Y2757205D01*
X1408681Y2755391D01*
Y2752670D01*
X1407774Y2750856D01*
X1406867Y2749949D01*
X1404147Y2749042D01*
X1395984D01*
X1418386Y2768088D02*
X1416572Y2767181D01*
X1414758Y2765367D01*
X1413851Y2763553D01*
X1412944Y2760832D01*
Y2756298D01*
X1413851Y2753577D01*
X1414758Y2751763D01*
X1416572Y2749949D01*
X1418386Y2749042D01*
X1422013D01*
X1423827Y2749949D01*
X1425641Y2751763D01*
X1426548Y2753577D01*
X1427455Y2756298D01*
Y2760832D01*
X1426548Y2763553D01*
X1425641Y2765367D01*
X1423827Y2767181D01*
X1422013Y2768088D01*
X1418386D01*
X1446410Y2749042D02*
X1439155Y2768088D01*
X1431899Y2749042D01*
X1434620Y2755391D02*
X1443690D01*
X1450854Y2768088D02*
Y2749042D01*
Y2768088D02*
X1459017D01*
X1461738Y2767181D01*
X1462645Y2766274D01*
X1463552Y2764460D01*
Y2762646D01*
X1462645Y2760832D01*
X1461738Y2759926D01*
X1459017Y2759018D01*
X1450854D01*
X1457203D02*
X1463552Y2749042D01*
X1467814Y2768088D02*
Y2749042D01*
Y2768088D02*
X1474163D01*
X1476884Y2767181D01*
X1478698Y2765367D01*
X1479605Y2763553D01*
X1480512Y2760832D01*
Y2756298D01*
X1479605Y2753577D01*
X1478698Y2751763D01*
X1476884Y2749949D01*
X1474163Y2749042D01*
X1467814D01*
X1499739Y2768088D02*
Y2749042D01*
Y2768088D02*
X1512436Y2749042D01*
Y2768088D02*
Y2749042D01*
X1532208D02*
X1524952Y2768088D01*
X1517697Y2749042D01*
X1520417Y2755391D02*
X1529487D01*
X1536652Y2768088D02*
Y2749042D01*
Y2768088D02*
X1543907Y2749042D01*
X1551163Y2768088D02*
X1543907Y2749042D01*
X1551163Y2768088D02*
Y2749042D01*
X1568395Y2768088D02*
X1556605D01*
Y2749042D01*
X1568395D01*
X1556605Y2759018D02*
X1563860D01*
D13*
X1813052Y1613625D02*
X1818276D01*
X1820017Y1614205D01*
X1820598Y1614785D01*
X1821178Y1615946D01*
Y1617688D01*
X1820598Y1618849D01*
X1820017Y1619429D01*
X1818276Y1620009D01*
X1813052D01*
Y1607820D01*
X1823906Y1617688D02*
X1825067Y1618268D01*
X1826809Y1620009D01*
Y1607820D01*
D14*
X1182624Y2718562D02*
D03*
Y2792222D02*
D03*
M02*
