G04*
G04 #@! TF.GenerationSoftware,Altium Limited,Altium Designer,20.0.13 (296)*
G04*
G04 Layer_Color=128*
%FSLAX44Y44*%
%MOMM*%
G71*
G01*
G75*
%ADD11C,0.2286*%
D11*
X2687646Y2619139D02*
X2686558Y2618050D01*
X2687646Y2616962D01*
X2688735Y2618050D01*
X2687646Y2619139D01*
X2710066Y2634375D02*
X2708978Y2636552D01*
X2706801Y2638729D01*
X2704624Y2639817D01*
X2700271D01*
X2698094Y2638729D01*
X2695918Y2636552D01*
X2694829Y2634375D01*
X2693741Y2631111D01*
Y2625669D01*
X2694829Y2622404D01*
X2695918Y2620227D01*
X2698094Y2618050D01*
X2700271Y2616962D01*
X2704624D01*
X2706801Y2618050D01*
X2708978Y2620227D01*
X2710066Y2622404D01*
Y2625669D01*
X2704624D02*
X2710066D01*
X2715290Y2639817D02*
Y2616962D01*
Y2639817D02*
X2725085D01*
X2728350Y2638729D01*
X2729438Y2637640D01*
X2730527Y2635464D01*
Y2633287D01*
X2729438Y2631111D01*
X2728350Y2630022D01*
X2725085Y2628934D01*
X2715290D02*
X2725085D01*
X2728350Y2627845D01*
X2729438Y2626757D01*
X2730527Y2624580D01*
Y2621315D01*
X2729438Y2619139D01*
X2728350Y2618050D01*
X2725085Y2616962D01*
X2715290D01*
X2735642Y2627845D02*
X2745437D01*
X2748702Y2628934D01*
X2749791Y2630022D01*
X2750879Y2632199D01*
Y2635464D01*
X2749791Y2637640D01*
X2748702Y2638729D01*
X2745437Y2639817D01*
X2735642D01*
Y2616962D01*
M02*
