G04*
G04 #@! TF.GenerationSoftware,Altium Limited,Altium Designer,20.0.13 (296)*
G04*
G04 Layer_Physical_Order=1*
G04 Layer_Color=255*
%FSLAX44Y44*%
%MOMM*%
G71*
G01*
G75*
%ADD11C,0.2286*%
%ADD18O,1.0160X5.0800*%
%ADD19C,1.2700*%
D11*
X2687646Y2619139D02*
X2686558Y2618050D01*
X2687646Y2616962D01*
X2688735Y2618050D01*
X2687646Y2619139D01*
X2710066Y2634375D02*
X2708978Y2636552D01*
X2706801Y2638729D01*
X2704624Y2639817D01*
X2700271D01*
X2698094Y2638729D01*
X2695918Y2636552D01*
X2694829Y2634375D01*
X2693741Y2631111D01*
Y2625669D01*
X2694829Y2622404D01*
X2695918Y2620227D01*
X2698094Y2618050D01*
X2700271Y2616962D01*
X2704624D01*
X2706801Y2618050D01*
X2708978Y2620227D01*
X2710066Y2622404D01*
Y2625669D01*
X2704624D02*
X2710066D01*
X2722909Y2639817D02*
Y2616962D01*
X2715290Y2639817D02*
X2730527D01*
X2733248D02*
Y2616962D01*
X2746308D01*
D18*
X1597152Y1568450D02*
D03*
X2041652D02*
D03*
X2206752D02*
D03*
X2194052D02*
D03*
X2181352D02*
D03*
X2168652D02*
D03*
X2155952D02*
D03*
X2143252D02*
D03*
X2130552D02*
D03*
X2117852D02*
D03*
X2105152D02*
D03*
X2092452D02*
D03*
X2079752D02*
D03*
X2028952D02*
D03*
X2016252D02*
D03*
X2003552D02*
D03*
X1990852D02*
D03*
X1978152D02*
D03*
X1965452D02*
D03*
X1952752D02*
D03*
X1940052D02*
D03*
X1927352D02*
D03*
X1914652D02*
D03*
X1901952D02*
D03*
X1889252D02*
D03*
X1876552D02*
D03*
X1863852D02*
D03*
X1851152D02*
D03*
X1838452D02*
D03*
X1825752D02*
D03*
X1813052D02*
D03*
X1800352D02*
D03*
X1787652D02*
D03*
X1774952D02*
D03*
X1762252D02*
D03*
X1749552D02*
D03*
X1736852D02*
D03*
X1724152D02*
D03*
X1711452D02*
D03*
X1698752D02*
D03*
X1686052D02*
D03*
X1673352D02*
D03*
X1660652D02*
D03*
X1647952D02*
D03*
X1635252D02*
D03*
X1622552D02*
D03*
X1609852D02*
D03*
X1559052D02*
D03*
X1546352D02*
D03*
X1533652D02*
D03*
X1520952D02*
D03*
X1508252D02*
D03*
X1495552D02*
D03*
X1482852D02*
D03*
X1470152D02*
D03*
X1457452D02*
D03*
X1444752D02*
D03*
X1432052D02*
D03*
D19*
X1090930Y1572260D02*
D03*
Y2426208D02*
D03*
X2711450Y2540000D02*
D03*
Y1644650D02*
D03*
M02*
