G04*
G04 #@! TF.GenerationSoftware,Altium Limited,Altium Designer,20.0.13 (296)*
G04*
G04 Layer_Color=32896*
%FSLAX44Y44*%
%MOMM*%
G71*
G01*
G75*
%ADD10C,0.2540*%
D10*
X2225802Y1607820D02*
Y1615945D01*
X2221739Y1620008D01*
X2217677Y1615945D01*
Y1607820D01*
Y1613914D01*
X2225802D01*
X2205489Y1620008D02*
X2209551Y1617977D01*
X2213614Y1613914D01*
Y1609851D01*
X2211583Y1607820D01*
X2207520D01*
X2205489Y1609851D01*
Y1611883D01*
X2207520Y1613914D01*
X2213614D01*
X2193300Y1607820D02*
X2201426D01*
X2193300Y1615945D01*
Y1617977D01*
X2195332Y1620008D01*
X2199395D01*
X2201426Y1617977D01*
X2105152Y1607820D02*
Y1615945D01*
X2101089Y1620008D01*
X2097027Y1615945D01*
Y1607820D01*
Y1613914D01*
X2105152D01*
X2084839Y1620008D02*
X2092964D01*
Y1613914D01*
X2088901Y1615945D01*
X2086870D01*
X2084839Y1613914D01*
Y1609851D01*
X2086870Y1607820D01*
X2090933D01*
X2092964Y1609851D01*
X2072650Y1607820D02*
X2080776D01*
X2072650Y1615945D01*
Y1617977D01*
X2074682Y1620008D01*
X2078745D01*
X2080776Y1617977D01*
X1616202Y1607820D02*
Y1615945D01*
X1612139Y1620008D01*
X1608077Y1615945D01*
Y1607820D01*
Y1613914D01*
X1616202D01*
X1604014Y1607820D02*
X1599951D01*
X1601983D01*
Y1620008D01*
X1604014Y1617977D01*
X1587763Y1607820D02*
Y1620008D01*
X1593857Y1613914D01*
X1585732D01*
X1438402Y1607820D02*
Y1615945D01*
X1434339Y1620008D01*
X1430277Y1615945D01*
Y1607820D01*
Y1613914D01*
X1438402D01*
X1426214Y1607820D02*
X1422151D01*
X1424183D01*
Y1620008D01*
X1426214Y1617977D01*
X1565402Y1607820D02*
Y1615945D01*
X1561339Y1620008D01*
X1557277Y1615945D01*
Y1607820D01*
Y1613914D01*
X1565402D01*
X1553214Y1607820D02*
X1549151D01*
X1551183D01*
Y1620008D01*
X1553214Y1617977D01*
X1543057Y1607820D02*
X1538994D01*
X1541026D01*
Y1620008D01*
X1543057Y1617977D01*
X2048002Y1607820D02*
Y1615945D01*
X2043939Y1620008D01*
X2039877Y1615945D01*
Y1607820D01*
Y1613914D01*
X2048002D01*
X2029720Y1607820D02*
Y1620008D01*
X2035814Y1613914D01*
X2027689D01*
X2023626Y1609851D02*
X2021595Y1607820D01*
X2017532D01*
X2015500Y1609851D01*
Y1617977D01*
X2017532Y1620008D01*
X2021595D01*
X2023626Y1617977D01*
Y1615945D01*
X2021595Y1613914D01*
X2015500D01*
M02*
