G04*
G04 #@! TF.GenerationSoftware,Altium Limited,Altium Designer,20.0.13 (296)*
G04*
G04 Layer_Physical_Order=2*
G04 Layer_Color=36540*
%FSLAX44Y44*%
%MOMM*%
G71*
G01*
G75*
%ADD10C,0.2000*%
%ADD23C,0.3000*%
%ADD25C,0.7000*%
D10*
X615330Y64146D02*
Y68813D01*
X615500Y68983D01*
X613770Y70713D02*
X615500Y68983D01*
X607500Y68983D02*
X609230Y70713D01*
X607500Y67630D02*
Y68983D01*
X613770Y70713D02*
Y143850D01*
X466410Y284790D02*
X609230Y141970D01*
Y70713D02*
Y141970D01*
X470950Y286670D02*
X613770Y143850D01*
X470950Y286670D02*
Y336030D01*
X469065Y337915D02*
X470950Y336030D01*
X466410Y284790D02*
Y334149D01*
X465855Y334705D02*
X466410Y334149D01*
X657480Y67743D02*
X659230Y69493D01*
X657480Y66410D02*
Y67743D01*
X663770Y69473D02*
Y211761D01*
X665480Y66410D02*
Y67763D01*
X663770Y69473D02*
X665480Y67763D01*
X659230Y69493D02*
Y209880D01*
X534770Y397540D02*
Y432350D01*
X550450Y448030D01*
X464123Y358370D02*
X517160D01*
X663770Y211761D01*
X464123Y353830D02*
X515280D01*
X659230Y209880D01*
X463408Y334705D02*
X465855D01*
X462451Y335662D02*
X463408Y334705D01*
X469065Y337915D02*
Y340362D01*
X468108Y341318D02*
X469065Y340362D01*
D23*
X628207Y68364D02*
X628265Y68305D01*
X635499Y67541D02*
X636213D01*
X634735Y68305D02*
X635499Y67541D01*
X628207Y68242D02*
Y68364D01*
X634270Y71297D02*
X634735Y70833D01*
X628265D02*
X628730Y71297D01*
X628265Y68305D02*
Y70833D01*
X634735Y68305D02*
Y70833D01*
X462760Y74900D02*
Y154000D01*
X442000Y174760D02*
X462760Y154000D01*
X442000Y362120D02*
X454810Y374930D01*
X442000Y174760D02*
Y362120D01*
X455830Y278600D02*
X542370Y192060D01*
X455830Y278600D02*
Y322310D01*
X542370Y112720D02*
Y192060D01*
X678730Y71277D02*
Y219618D01*
X684270Y71277D02*
Y221913D01*
X535090Y371093D02*
X684270Y221913D01*
X532795Y365553D02*
X678730Y219618D01*
X628730Y71297D02*
Y168969D01*
X634270Y71297D02*
Y171264D01*
X694460Y81990D02*
Y217380D01*
X497258Y365553D02*
X532795D01*
X499553Y371093D02*
X535090D01*
X513690Y398150D02*
X694460Y217380D01*
X456960Y398150D02*
X513690D01*
X497379Y373267D02*
X499553Y371093D01*
X496297Y373267D02*
X497379D01*
X490640Y367610D02*
X491405Y366845D01*
X495967D01*
X497258Y365553D01*
X493417Y304283D02*
X628730Y168969D01*
X497334Y308200D02*
X634270Y171264D01*
X678265Y70813D02*
X678730Y71277D01*
X678265Y68285D02*
Y70813D01*
X677500Y67520D02*
X678265Y68285D01*
X684735D02*
Y70813D01*
X684270Y71277D02*
X684735Y70813D01*
Y68285D02*
X685500Y67520D01*
D25*
X615330Y64146D02*
D03*
X636213Y67541D02*
D03*
X628207Y68242D02*
D03*
X607500Y67630D02*
D03*
X462760Y74900D02*
D03*
X454810Y374930D02*
D03*
X455830Y322310D02*
D03*
X542370Y112720D02*
D03*
X657480Y66410D02*
D03*
X665480D02*
D03*
X694460Y81990D02*
D03*
X534770Y397540D02*
D03*
X456960Y398150D02*
D03*
X550450Y448030D02*
D03*
X461040Y352100D02*
D03*
Y360100D02*
D03*
X490640Y367610D02*
D03*
X496297Y373267D02*
D03*
X468108Y341318D02*
D03*
X462451Y335662D02*
D03*
X685500Y67520D02*
D03*
X677500D02*
D03*
X495547Y311727D02*
D03*
X489890Y306070D02*
D03*
M02*
