G04*
G04 #@! TF.GenerationSoftware,Altium Limited,Altium Designer,20.0.13 (296)*
G04*
G04 Layer_Physical_Order=3*
G04 Layer_Color=32768*
%FSLAX44Y44*%
%MOMM*%
G71*
G01*
G75*
%ADD26C,0.7620*%
%ADD27C,2.6500*%
%ADD28C,2.1500*%
%ADD29C,1.7100*%
%ADD30C,1.9000*%
G04:AMPARAMS|DCode=31|XSize=2.424mm|YSize=2.424mm|CornerRadius=0mm|HoleSize=0mm|Usage=FLASHONLY|Rotation=0.000|XOffset=0mm|YOffset=0mm|HoleType=Round|Shape=Relief|Width=0.254mm|Gap=0.254mm|Entries=4|*
%AMTHD31*
7,0,0,2.4240,1.9160,0.2540,45*
%
%ADD31THD31*%
%ADD32C,4.1800*%
G04:AMPARAMS|DCode=33|XSize=1.824mm|YSize=1.824mm|CornerRadius=0mm|HoleSize=0mm|Usage=FLASHONLY|Rotation=0.000|XOffset=0mm|YOffset=0mm|HoleType=Round|Shape=Relief|Width=0.254mm|Gap=0.254mm|Entries=4|*
%AMTHD33*
7,0,0,1.8240,1.3160,0.2540,45*
%
%ADD33THD33*%
G04:AMPARAMS|DCode=34|XSize=4.524mm|YSize=4.524mm|CornerRadius=0mm|HoleSize=0mm|Usage=FLASHONLY|Rotation=0.000|XOffset=0mm|YOffset=0mm|HoleType=Round|Shape=Relief|Width=0.254mm|Gap=0.254mm|Entries=4|*
%AMTHD34*
7,0,0,4.5240,4.0160,0.2540,45*
%
%ADD34THD34*%
%ADD35C,1.3000*%
D26*
X0Y689000D02*
X1021500D01*
X1021500Y127500D01*
X963000D02*
X1021500D01*
X450000Y5000D02*
Y109250D01*
X449912Y111039D02*
X450000Y109250D01*
X449214Y114548D02*
X449912Y111039D01*
X447845Y117853D02*
X449214Y114548D01*
X445857Y120828D02*
X447845Y117853D01*
X443328Y123357D02*
X445857Y120828D01*
X440353Y125345D02*
X443328Y123357D01*
X437048Y126714D02*
X440353Y125345D01*
X433539Y127412D02*
X437048Y126714D01*
X429961Y127412D02*
X433539D01*
X426452Y126714D02*
X429961Y127412D01*
X423147Y125345D02*
X426452Y126714D01*
X420172Y123357D02*
X423147Y125345D01*
X417643Y120828D02*
X420172Y123357D01*
X415655Y117853D02*
X417643Y120828D01*
X414286Y114548D02*
X415655Y117853D01*
X413588Y111039D02*
X414286Y114548D01*
X413500Y109250D02*
X413588Y111039D01*
X0Y45000D02*
Y689000D01*
X963000Y5000D02*
Y127500D01*
X958000Y0D02*
X963000Y5000D01*
X586000Y0D02*
X958000D01*
X581000Y5000D02*
X586000Y0D01*
X581000Y5000D02*
Y74500D01*
X580919Y75740D02*
X581000Y74500D01*
X580277Y78135D02*
X580919Y75740D01*
X579037Y80283D02*
X580277Y78135D01*
X577283Y82037D02*
X579037Y80283D01*
X575135Y83277D02*
X577283Y82037D01*
X572740Y83919D02*
X575135Y83277D01*
X570260Y83919D02*
X572740D01*
X567864Y83277D02*
X570260Y83919D01*
X565717Y82037D02*
X567864Y83277D01*
X563963Y80283D02*
X565717Y82037D01*
X562723Y78135D02*
X563963Y80283D01*
X562081Y75740D02*
X562723Y78135D01*
X562000Y74500D02*
X562081Y75740D01*
X562000Y5000D02*
Y74500D01*
X557000Y0D02*
X562000Y5000D01*
X455000Y0D02*
X557000D01*
X450000Y5000D02*
X455000Y0D01*
X413500Y45000D02*
Y109250D01*
X333500Y45000D02*
X413500D01*
X333500D02*
Y127500D01*
X150000D02*
X333500D01*
X150000Y45000D02*
Y127500D01*
X0Y45000D02*
X150000D01*
D27*
X462250Y430000D02*
D03*
D28*
Y230000D02*
D03*
D29*
X232300Y553170D02*
D03*
X257700D02*
D03*
X283100D02*
D03*
D30*
X133070Y507450D02*
D03*
D31*
X107670D02*
D03*
D32*
X75000Y93500D02*
D03*
Y632500D02*
D03*
D33*
X619790Y79920D02*
D03*
X669790Y83040D02*
D03*
X647190Y78330D02*
D03*
X716940Y68700D02*
D03*
X736890Y68870D02*
D03*
X757180Y69050D02*
D03*
X788570Y67480D02*
D03*
X816310Y67660D02*
D03*
X841460D02*
D03*
X868560Y68080D02*
D03*
X887260Y68690D02*
D03*
X906560D02*
D03*
X932040Y68770D02*
D03*
X933750Y97730D02*
D03*
D34*
X206520Y330520D02*
D03*
X756520D02*
D03*
D35*
X615330Y64146D02*
D03*
X636213Y67541D02*
D03*
X628207Y68242D02*
D03*
X607500Y67630D02*
D03*
X480610Y70720D02*
D03*
X381510Y197380D02*
D03*
X462760Y74900D02*
D03*
X454810Y374930D02*
D03*
X455830Y322310D02*
D03*
X542370Y112720D02*
D03*
X568320Y138240D02*
D03*
X657480Y66410D02*
D03*
X665480D02*
D03*
X694460Y81990D02*
D03*
X534770Y397540D02*
D03*
X456960Y398150D02*
D03*
X550450Y448030D02*
D03*
X461040Y352100D02*
D03*
Y360100D02*
D03*
X490640Y367610D02*
D03*
X496297Y373267D02*
D03*
X468108Y341318D02*
D03*
X462451Y335662D02*
D03*
X685500Y67520D02*
D03*
X677500D02*
D03*
X495547Y311727D02*
D03*
X489890Y306070D02*
D03*
M02*
