G04*
G04 #@! TF.GenerationSoftware,Altium Limited,Altium Designer,20.0.13 (296)*
G04*
G04 Layer_Physical_Order=4*
G04 Layer_Color=16711680*
%FSLAX44Y44*%
%MOMM*%
G71*
G01*
G75*
%ADD10C,0.2000*%
%ADD13R,0.7000X4.2000*%
%ADD14R,0.7000X3.2000*%
%ADD15C,1.6500*%
%ADD16C,1.1500*%
%ADD17C,1.2180*%
%ADD18R,1.2180X1.2180*%
%ADD19R,1.5000X1.5000*%
%ADD20C,1.5000*%
%ADD21C,2.8800*%
%ADD22C,3.2000*%
%ADD23C,0.3000*%
%ADD24C,0.5000*%
%ADD25C,0.7000*%
%ADD36R,2.7500X1.2000*%
%ADD37R,1.5500X0.3000*%
%ADD38R,0.9000X0.7000*%
%ADD39R,0.7000X0.9000*%
%ADD40R,2.4000X1.5000*%
%ADD41C,1.0000*%
G36*
X1020588Y138582D02*
X963000D01*
X962235Y138265D01*
X961918Y137500D01*
Y127500D01*
X962235Y126735D01*
X963000Y126418D01*
X962990Y58557D01*
X689286Y58562D01*
X686976Y58743D01*
Y63106D01*
X687054Y63293D01*
X688944Y64076D01*
X690371Y67520D01*
X688944Y70964D01*
X685500Y72391D01*
X683417Y71528D01*
X681500Y71091D01*
X679583Y71528D01*
X677500Y72391D01*
X674056Y70964D01*
X672629Y67520D01*
X674056Y64076D01*
X675947Y63293D01*
X676024Y63106D01*
Y61062D01*
X676006Y60312D01*
X674256Y58562D01*
X639286Y58563D01*
X636976Y58743D01*
Y62986D01*
X639657Y64097D01*
X641084Y67541D01*
X639657Y70985D01*
X636213Y72412D01*
X634372Y71649D01*
X631651Y71686D01*
X628207Y73113D01*
X624763Y71686D01*
X623336Y68242D01*
X624763Y64798D01*
X626024Y64275D01*
Y61063D01*
X626005Y60312D01*
X624256Y58563D01*
X619902Y58563D01*
X618924Y61063D01*
X620201Y64146D01*
X618774Y67590D01*
X615330Y69017D01*
X612314Y67768D01*
X610944Y71074D01*
X607500Y72501D01*
X606163Y71947D01*
X604085Y73336D01*
Y123113D01*
X619357Y138385D01*
X662740D01*
X664271Y139019D01*
X670201Y144949D01*
X670835Y146480D01*
Y149700D01*
X674180D01*
Y158700D01*
X663180D01*
Y149700D01*
X666079D01*
X666329Y147200D01*
X661843Y142715D01*
X620625D01*
Y149700D01*
X623240D01*
Y158700D01*
X625469Y159355D01*
X643081D01*
X645310Y158700D01*
Y149700D01*
X656310D01*
Y158700D01*
X651105D01*
Y160348D01*
X650471Y161879D01*
X649299Y163051D01*
X648939Y163200D01*
X649436Y165700D01*
X656310D01*
Y174700D01*
X652975D01*
Y293940D01*
X652341Y295471D01*
X536690Y411121D01*
X537513Y413834D01*
X538148Y413960D01*
X666515Y285593D01*
Y174700D01*
X663180D01*
Y165700D01*
X674180D01*
Y174700D01*
X670845D01*
Y286490D01*
X670211Y288021D01*
X539201Y419031D01*
X537670Y419665D01*
X524790D01*
Y421230D01*
X514500D01*
X504210D01*
Y418460D01*
X504210D01*
X505750Y416920D01*
X505750Y415000D01*
X505750Y413080D01*
X504210Y411540D01*
X504210D01*
Y408770D01*
X514500D01*
X524790D01*
Y410055D01*
X531633D01*
X537846Y403843D01*
X536430Y401723D01*
X534770Y402411D01*
X531326Y400984D01*
X529899Y397540D01*
X531326Y394096D01*
X532605Y393566D01*
Y378003D01*
X527100Y372497D01*
X525471Y373172D01*
X524790Y373723D01*
Y376230D01*
X514500D01*
X504210D01*
Y373770D01*
X514500D01*
Y371230D01*
X504210D01*
Y368460D01*
X504210D01*
Y366540D01*
X504210D01*
Y363770D01*
X514500D01*
X524790D01*
Y365335D01*
X525164D01*
X526695Y365969D01*
X536301Y375575D01*
X536935Y377106D01*
Y393566D01*
X538214Y394096D01*
X539641Y397540D01*
X538953Y399200D01*
X541073Y400616D01*
X648645Y293043D01*
Y174700D01*
X645310D01*
Y166185D01*
X645310Y165700D01*
X644140Y163685D01*
X624410D01*
X623240Y165700D01*
X623240Y166185D01*
Y174700D01*
X619905D01*
Y276500D01*
X619271Y278031D01*
X538271Y359031D01*
X536740Y359665D01*
X524790D01*
Y361230D01*
X514500D01*
X504210D01*
Y358460D01*
X505750D01*
Y351540D01*
X504210D01*
Y348770D01*
X514500D01*
X524790D01*
Y350035D01*
X532183D01*
X597185Y285033D01*
Y174700D01*
X593850D01*
Y165700D01*
X604850D01*
Y174700D01*
X601515D01*
Y285930D01*
X601375Y286268D01*
X603494Y287684D01*
X615575Y275603D01*
Y174700D01*
X612240D01*
Y166185D01*
X612240Y165700D01*
X611070Y163685D01*
X607670D01*
X606139Y163051D01*
X601788Y158700D01*
X593850D01*
Y149700D01*
X594335D01*
Y60332D01*
X592567Y58564D01*
X581090Y58564D01*
X581090Y78390D01*
X575510Y83970D01*
X567450Y83970D01*
X561890Y78410D01*
X561890Y62778D01*
X559390Y61108D01*
X559206Y61184D01*
Y98590D01*
X558413Y100503D01*
X546935Y111982D01*
X547241Y112720D01*
X545814Y116164D01*
X542370Y117591D01*
X541632Y117285D01*
X539396Y119521D01*
Y122710D01*
X541190D01*
Y133710D01*
X532190D01*
Y122710D01*
X533984D01*
Y118400D01*
X534777Y116487D01*
X537805Y113458D01*
X537499Y112720D01*
X538926Y109276D01*
X542370Y107849D01*
X543108Y108155D01*
X553794Y97469D01*
Y61587D01*
X551487Y59866D01*
X550288Y60362D01*
Y91050D01*
X549179Y93729D01*
X549179Y93729D01*
X442579Y200329D01*
X439900Y201438D01*
X439900Y201438D01*
X427090D01*
X427090Y201438D01*
X427090Y201438D01*
X418500D01*
Y206150D01*
X411304D01*
Y237294D01*
X440000D01*
X440497Y237500D01*
X448750D01*
Y245000D01*
X448750Y247500D01*
X448750D01*
Y247500D01*
X448750D01*
Y257500D01*
X448750Y262500D01*
X448750Y265000D01*
X448750Y272500D01*
X448750Y274420D01*
X450290Y275960D01*
X450290D01*
Y278730D01*
X440000D01*
X429710D01*
Y275960D01*
X429710D01*
X431250Y274420D01*
X431250Y272500D01*
X431250Y270000D01*
X431250Y262500D01*
X431250Y260000D01*
Y247706D01*
X411304D01*
Y412294D01*
X431250D01*
Y400000D01*
X431250Y397500D01*
X431250D01*
Y397500D01*
X431250D01*
Y392500D01*
X431250Y387500D01*
X431250Y385000D01*
Y377500D01*
X431250Y372500D01*
X431250Y370000D01*
Y365000D01*
X431250Y362500D01*
X431250D01*
Y362500D01*
X431250D01*
Y352500D01*
X431250Y347500D01*
X431250Y345000D01*
X431250Y337500D01*
X431250Y335000D01*
Y327500D01*
X431250Y322500D01*
X431250Y320000D01*
Y312500D01*
X448750D01*
Y317500D01*
X448750Y321111D01*
X451250Y321608D01*
X452386Y318866D01*
X455830Y317439D01*
X459274Y318866D01*
X460701Y322310D01*
X459274Y325754D01*
X457475Y326499D01*
X456978Y327699D01*
X452764Y331913D01*
X450850Y332706D01*
X450518D01*
X448750Y334474D01*
X448750Y337500D01*
X448750Y340000D01*
X448750Y347500D01*
X448750Y350000D01*
Y362294D01*
X450690D01*
X452603Y363087D01*
X455958Y366441D01*
X456751Y368355D01*
Y370863D01*
X458254Y371486D01*
X459681Y374930D01*
X458254Y378374D01*
X454810Y379801D01*
X451366Y378374D01*
X451250Y378094D01*
X448750Y378592D01*
Y382500D01*
X448750Y387500D01*
X451111Y387835D01*
X460810D01*
X462341Y388469D01*
X489541Y415669D01*
X490175Y417200D01*
Y422785D01*
X490960Y424960D01*
X492675Y424960D01*
X504210D01*
Y423770D01*
X514500D01*
X524790D01*
Y426540D01*
X523540D01*
Y432230D01*
X507250D01*
Y433500D01*
X505980D01*
Y442040D01*
X493057D01*
X492021Y444540D01*
X498297Y450815D01*
X510778D01*
X512309Y451449D01*
X513481Y452621D01*
X514115Y454152D01*
Y460430D01*
X517450D01*
Y469430D01*
X506450D01*
Y460430D01*
X509785D01*
Y455145D01*
X497400D01*
X495869Y454511D01*
X486479Y445121D01*
X485845Y443590D01*
Y418097D01*
X483064Y415316D01*
X482213Y415579D01*
X480755Y416542D01*
Y440802D01*
X480735Y440850D01*
Y461130D01*
X484070D01*
Y470130D01*
X473070D01*
Y461130D01*
X476405D01*
Y440821D01*
X476425Y440773D01*
Y416927D01*
X466663Y407165D01*
X448750D01*
Y412500D01*
X448750D01*
X448750Y415000D01*
Y422500D01*
X440497D01*
X440000Y422706D01*
X411304D01*
Y456110D01*
X417120D01*
Y473110D01*
X391120D01*
Y471104D01*
X372860D01*
Y473110D01*
X346860D01*
Y456110D01*
X372860D01*
Y458116D01*
X391120D01*
Y456110D01*
X398316D01*
Y420190D01*
Y415070D01*
Y245340D01*
Y239900D01*
Y206150D01*
X392500D01*
Y204144D01*
X372860D01*
Y206150D01*
X346860D01*
Y189150D01*
X372860D01*
Y191156D01*
X392500D01*
Y189150D01*
X418500D01*
Y193862D01*
X425521D01*
X532712Y86671D01*
Y60333D01*
X530944Y58565D01*
X479206Y58566D01*
Y63290D01*
X478988Y63815D01*
X480610Y65849D01*
X484054Y67276D01*
X485481Y70720D01*
X484054Y74164D01*
X480610Y75591D01*
X478869Y74869D01*
X476369Y76540D01*
Y126507D01*
X475576Y128421D01*
X456703Y147293D01*
X454790Y148086D01*
X295661D01*
X260406Y183341D01*
Y546617D01*
X263126Y547743D01*
X265374Y553170D01*
X263126Y558596D01*
X257700Y560844D01*
X252274Y558596D01*
X250026Y553170D01*
X252274Y547743D01*
X254994Y546617D01*
Y182220D01*
X255787Y180307D01*
X292627Y143467D01*
X294540Y142674D01*
X453669D01*
X470957Y125386D01*
Y68742D01*
X469264Y68041D01*
X464586Y63363D01*
X463794Y61450D01*
Y60334D01*
X462026Y58566D01*
X459206Y58566D01*
Y67519D01*
X462022Y70335D01*
X462760Y70029D01*
X466204Y71456D01*
X467631Y74900D01*
X466204Y78344D01*
X462760Y79771D01*
X459316Y78344D01*
X457889Y74900D01*
X458195Y74162D01*
X454586Y70553D01*
X453794Y68640D01*
Y60940D01*
X451754Y59223D01*
X449990Y59686D01*
X449990Y107445D01*
X450209Y107664D01*
X450657Y107849D01*
X450657Y107850D01*
X450974Y107981D01*
X450974Y107981D01*
X451269Y108276D01*
X451269Y108276D01*
X451586Y109041D01*
X451586Y109041D01*
X451586Y109593D01*
X451586Y136948D01*
Y137202D01*
Y137202D01*
X451586Y137600D01*
X451586Y137600D01*
X451504Y137799D01*
Y138014D01*
X451504Y138014D01*
X451427Y138200D01*
X451286Y138341D01*
Y138341D01*
X451285Y138342D01*
X451275Y138352D01*
X451269Y138366D01*
X451269Y138366D01*
X451192Y138551D01*
X451051Y138693D01*
X450852Y138775D01*
X450700Y138927D01*
X450515Y139004D01*
X450514Y139004D01*
X450299Y139004D01*
X450101Y139086D01*
X450100Y139086D01*
X449094Y139086D01*
X11082D01*
Y583918D01*
X127000D01*
X127765Y584235D01*
X128082Y585000D01*
Y677918D01*
X1020588D01*
Y138582D01*
D02*
G37*
%LPC*%
G36*
X290190Y560260D02*
X276010D01*
Y546080D01*
X290190D01*
Y560260D01*
D02*
G37*
G36*
X232300Y560844D02*
X226873Y558596D01*
X224626Y553170D01*
X225753Y550449D01*
X185459Y510156D01*
X141570D01*
Y515950D01*
X124570D01*
Y498950D01*
X141570D01*
Y504744D01*
X186580D01*
X188493Y505537D01*
X229580Y546623D01*
X232300Y545496D01*
X237726Y547743D01*
X239974Y553170D01*
X237726Y558596D01*
X232300Y560844D01*
D02*
G37*
G36*
X108940Y517791D02*
Y508720D01*
X118011D01*
X115354Y515134D01*
X108940Y517791D01*
D02*
G37*
G36*
X106400Y517791D02*
X99986Y515134D01*
X97329Y508720D01*
X106400D01*
Y517791D01*
D02*
G37*
G36*
X118011Y506180D02*
X108940D01*
Y497109D01*
X115354Y499766D01*
X118011Y506180D01*
D02*
G37*
G36*
X106400D02*
X97329D01*
X99986Y499766D01*
X106400Y497109D01*
Y506180D01*
D02*
G37*
G36*
X418660Y503650D02*
X405390D01*
Y494880D01*
X418660D01*
Y503650D01*
D02*
G37*
G36*
X402850D02*
X389580D01*
Y494880D01*
X402850D01*
Y503650D01*
D02*
G37*
G36*
X374400D02*
X361130D01*
Y494880D01*
X374400D01*
Y503650D01*
D02*
G37*
G36*
X358590D02*
X345320D01*
Y494880D01*
X358590D01*
Y503650D01*
D02*
G37*
G36*
X418660Y492340D02*
X405390D01*
Y483570D01*
X418660D01*
Y492340D01*
D02*
G37*
G36*
X402850D02*
X389580D01*
Y483570D01*
X402850D01*
Y492340D01*
D02*
G37*
G36*
X374400D02*
X361130D01*
Y483570D01*
X374400D01*
Y492340D01*
D02*
G37*
G36*
X358590D02*
X345320D01*
Y483570D01*
X358590D01*
Y492340D01*
D02*
G37*
G36*
X484070Y486130D02*
X473070D01*
Y477130D01*
X484070D01*
Y486130D01*
D02*
G37*
G36*
X517450Y485430D02*
X506450D01*
Y476430D01*
X517450D01*
Y485430D01*
D02*
G37*
G36*
X555050Y485080D02*
X544050D01*
Y476080D01*
X555050D01*
Y485080D01*
D02*
G37*
G36*
Y469080D02*
X544050D01*
Y460080D01*
X548285D01*
Y452004D01*
X547006Y451474D01*
X545579Y448030D01*
X547006Y444586D01*
X550450Y443159D01*
X553894Y444586D01*
X555321Y448030D01*
X553894Y451474D01*
X552615Y452004D01*
Y460080D01*
X555050D01*
Y469080D01*
D02*
G37*
G36*
X523540Y442040D02*
X508520D01*
Y434770D01*
X523540D01*
Y442040D01*
D02*
G37*
G36*
X462250Y440012D02*
X455170Y437080D01*
X452238Y430000D01*
X455170Y422920D01*
X462250Y419988D01*
X469330Y422920D01*
X472262Y430000D01*
X469330Y437080D01*
X462250Y440012D01*
D02*
G37*
G36*
X524790Y406230D02*
X514500D01*
X504210D01*
Y404435D01*
X483289D01*
X481759Y403801D01*
X470069Y392111D01*
X469435Y390580D01*
Y364327D01*
X467296Y362188D01*
X464844Y362675D01*
X464484Y363544D01*
X461040Y364971D01*
X457596Y363544D01*
X456169Y360100D01*
X457032Y358017D01*
X457469Y356100D01*
X457032Y354183D01*
X456169Y352100D01*
X457596Y348656D01*
X461040Y347229D01*
X464484Y348656D01*
X465731Y351665D01*
X468420D01*
X469951Y352299D01*
X477671Y360019D01*
X478305Y361549D01*
Y387803D01*
X486067Y395565D01*
X504210D01*
Y393770D01*
X514500D01*
X524790D01*
Y396540D01*
X524790D01*
X523250Y398080D01*
X523250Y400000D01*
X523250D01*
Y400000D01*
X523250D01*
Y403460D01*
X524790D01*
Y406230D01*
D02*
G37*
G36*
Y391230D02*
X514500D01*
X504210D01*
Y390206D01*
X491095D01*
X489181Y389413D01*
X483383Y383615D01*
X482591Y381702D01*
Y375075D01*
X483383Y373161D01*
X486396Y370149D01*
X486608Y369636D01*
X485769Y367610D01*
X487196Y364166D01*
X490640Y362739D01*
X494084Y364166D01*
X494947Y366249D01*
X495993Y367914D01*
X497658Y368960D01*
X499741Y369823D01*
X501168Y373267D01*
X499741Y376711D01*
X498334Y377294D01*
X498831Y379794D01*
X504210D01*
Y378770D01*
X514500D01*
X524790D01*
Y381540D01*
X524790D01*
X523250Y383080D01*
X523250Y385000D01*
X523250D01*
Y385000D01*
X523250D01*
Y388460D01*
X524790D01*
Y391230D01*
D02*
G37*
G36*
Y346230D02*
X514500D01*
X504210D01*
Y344435D01*
X493399D01*
X491868Y343801D01*
X486438Y338371D01*
X474008D01*
X472619Y340449D01*
X472979Y341318D01*
X471553Y344762D01*
X468108Y346189D01*
X464664Y344762D01*
X463801Y342679D01*
X462755Y341015D01*
X461091Y339969D01*
X459007Y339106D01*
X457581Y335662D01*
X459007Y332217D01*
X462451Y330791D01*
X465461Y332037D01*
X467363Y330135D01*
X468894Y329501D01*
X486524D01*
X487559Y327001D01*
X482633Y322075D01*
X481841Y320162D01*
Y313535D01*
X482633Y311621D01*
X485646Y308609D01*
X485858Y308096D01*
X485019Y306070D01*
X486446Y302626D01*
X489890Y301199D01*
X493334Y302626D01*
X494197Y304709D01*
X495243Y306374D01*
X496908Y307420D01*
X498991Y308283D01*
X500418Y311727D01*
X498991Y315171D01*
X496755Y316097D01*
X495585Y318907D01*
X496133Y319794D01*
X504210D01*
Y318770D01*
X514500D01*
X524790D01*
Y321540D01*
X524790D01*
X523250Y323080D01*
X523250Y325000D01*
X523250D01*
Y325000D01*
X523250D01*
Y328460D01*
X524790D01*
Y331230D01*
X514500D01*
Y333770D01*
X524790D01*
Y336540D01*
X523250D01*
Y343460D01*
X524790D01*
Y346230D01*
D02*
G37*
G36*
Y316230D02*
X515770D01*
Y313460D01*
X524790D01*
Y316230D01*
D02*
G37*
G36*
X513230D02*
X504210D01*
Y313460D01*
X513230D01*
Y316230D01*
D02*
G37*
G36*
X448750Y292500D02*
X431250D01*
X431250Y287500D01*
X431250Y285580D01*
X429710Y284040D01*
X429710D01*
Y281270D01*
X440000D01*
X450290D01*
Y284040D01*
X450290D01*
X448750Y285580D01*
X448750Y287500D01*
X448750Y290000D01*
Y292500D01*
D02*
G37*
G36*
X523250Y295000D02*
X505750D01*
Y290000D01*
X505750Y285000D01*
X505750Y282500D01*
X505750Y275000D01*
X505750Y272500D01*
Y265000D01*
X505750Y260000D01*
X505750Y258080D01*
X504210Y256540D01*
X504210D01*
Y253770D01*
X514500D01*
X524790D01*
Y256540D01*
X524790D01*
X523250Y258080D01*
X523250Y260000D01*
X523250Y262500D01*
Y270000D01*
X523250Y275000D01*
X523250Y277500D01*
X523250Y285000D01*
X523250Y287500D01*
Y290000D01*
Y295000D01*
D02*
G37*
G36*
X524790Y251230D02*
X514500D01*
X504210D01*
Y248460D01*
X504210D01*
X505750Y246920D01*
X505750Y245000D01*
X505750Y243080D01*
X504210Y241540D01*
X504210D01*
Y238770D01*
X514500D01*
X524790D01*
Y241540D01*
X524790D01*
X523250Y243080D01*
X523250Y245000D01*
X523250Y246920D01*
X524790Y248460D01*
X524790D01*
Y251230D01*
D02*
G37*
G36*
Y236230D02*
X514500D01*
X504210D01*
Y235040D01*
X490960D01*
Y227770D01*
X507250D01*
X523540D01*
Y233460D01*
X524790D01*
Y236230D01*
D02*
G37*
G36*
X462250Y237306D02*
X457084Y235166D01*
X454944Y230000D01*
X457084Y224834D01*
X462250Y222694D01*
X467416Y224834D01*
X469556Y230000D01*
X467416Y235166D01*
X462250Y237306D01*
D02*
G37*
G36*
X523540Y225230D02*
X508520D01*
Y217960D01*
X523540D01*
Y225230D01*
D02*
G37*
G36*
X505980D02*
X490960D01*
Y217960D01*
X505980D01*
Y225230D01*
D02*
G37*
G36*
X420040Y178690D02*
X406770D01*
Y169920D01*
X420040D01*
Y178690D01*
D02*
G37*
G36*
X374400D02*
X361130D01*
Y169920D01*
X374400D01*
Y178690D01*
D02*
G37*
G36*
X358590D02*
X345320D01*
Y169920D01*
X358590D01*
Y178690D01*
D02*
G37*
G36*
X404230D02*
X390960D01*
Y169920D01*
X404230D01*
Y178690D01*
D02*
G37*
G36*
X573930Y174750D02*
X562930D01*
Y165750D01*
X573930D01*
Y174750D01*
D02*
G37*
G36*
X420040Y167380D02*
X406770D01*
Y158610D01*
X420040D01*
Y167380D01*
D02*
G37*
G36*
X404230D02*
X390960D01*
Y158610D01*
X404230D01*
Y167380D01*
D02*
G37*
G36*
X374400D02*
X361130D01*
Y158610D01*
X374400D01*
Y167380D01*
D02*
G37*
G36*
X358590D02*
X345320D01*
Y158610D01*
X358590D01*
Y167380D01*
D02*
G37*
G36*
X573930Y158750D02*
X562930D01*
Y149750D01*
X565614D01*
Y141990D01*
X564876Y141684D01*
X563449Y138240D01*
X564876Y134796D01*
X568320Y133369D01*
X571764Y134796D01*
X573191Y138240D01*
X571764Y141684D01*
X571026Y141990D01*
Y149750D01*
X573930D01*
Y158750D01*
D02*
G37*
G36*
X558730Y135250D02*
X553960D01*
Y129480D01*
X558730D01*
Y135250D01*
D02*
G37*
G36*
X551420D02*
X546650D01*
Y129480D01*
X551420D01*
Y135250D01*
D02*
G37*
G36*
X558730Y126940D02*
X553960D01*
Y121170D01*
X558730D01*
Y126940D01*
D02*
G37*
G36*
X551420D02*
X546650D01*
Y121170D01*
X551420D01*
Y126940D01*
D02*
G37*
G36*
X694460Y86861D02*
X691016Y85434D01*
X689589Y81990D01*
X691016Y78546D01*
X694460Y77119D01*
X697904Y78546D01*
X699331Y81990D01*
X697904Y85434D01*
X694460Y86861D01*
D02*
G37*
G36*
X665480Y71281D02*
X662036Y69854D01*
X660924Y69854D01*
X657480Y71281D01*
X654036Y69854D01*
X652609Y66410D01*
X654036Y62966D01*
X657480Y61539D01*
X660924Y62966D01*
X662036Y62966D01*
X665480Y61539D01*
X668924Y62966D01*
X670351Y66410D01*
X668924Y69854D01*
X665480Y71281D01*
D02*
G37*
%LPD*%
D10*
X601920Y62150D02*
X604000Y60070D01*
X601920Y62150D02*
Y124010D01*
X618460Y140550D01*
X514780Y412220D02*
X532530D01*
X650810Y170200D02*
Y293940D01*
X532530Y412220D02*
X650810Y293940D01*
X534770Y377106D02*
Y397540D01*
X525164Y367500D02*
X534770Y377106D01*
X514500Y367500D02*
X525164D01*
X467560Y405000D02*
X478590Y416030D01*
X440000Y405000D02*
X467560D01*
X478590Y416030D02*
Y440802D01*
X488010Y443590D02*
X497400Y452980D01*
X478570Y440821D02*
X478590Y440802D01*
X478570Y440821D02*
Y465630D01*
X488010Y417200D02*
Y443590D01*
X497400Y452980D02*
X510778D01*
X511950Y454152D02*
Y464930D01*
X510778Y452980D02*
X511950Y454152D01*
X460810Y390000D02*
X488010Y417200D01*
X440000Y390000D02*
X460810D01*
X549550Y464580D02*
X550450Y463680D01*
Y448030D02*
Y463680D01*
X537670Y417500D02*
X668680Y286490D01*
X514500Y417500D02*
X537670D01*
X668680Y170200D02*
Y286490D01*
X514500Y412500D02*
X514780Y412220D01*
X514500Y357500D02*
X536740D01*
X617740Y170200D02*
Y276500D01*
X536740Y357500D02*
X617740Y276500D01*
X514800Y352200D02*
X533080D01*
X599350Y285930D01*
Y170200D02*
Y285930D01*
X514500Y352500D02*
X514800Y352200D01*
X607670Y161520D02*
X647768D01*
X648940Y156070D02*
X650810Y154200D01*
X648940Y156070D02*
Y160348D01*
X647768Y161520D02*
X648940Y160348D01*
X599350Y154200D02*
X600350D01*
X607670Y161520D01*
X596500Y35000D02*
Y151700D01*
X599000Y154200D01*
X599350D01*
X668670Y154190D02*
X668680Y154200D01*
X668670Y146480D02*
Y154190D01*
X662740Y140550D02*
X668670Y146480D01*
X618460Y140550D02*
X662740D01*
X617740Y154200D02*
X618460Y153480D01*
Y140550D02*
Y153480D01*
X604000Y37500D02*
Y60070D01*
Y37500D02*
X606500Y35000D01*
X461040Y352100D02*
X462393D01*
X461040Y360100D02*
X462393D01*
X464123Y358370D01*
X462393Y352100D02*
X464123Y353830D01*
X514270Y397730D02*
X514500Y397500D01*
X485170Y397730D02*
X514270D01*
X476140Y388700D02*
X485170Y397730D01*
X514270Y402270D02*
X514500Y402500D01*
X483289Y402270D02*
X514270D01*
X471600Y390580D02*
X483289Y402270D01*
X464123Y353830D02*
X468420D01*
X476140Y361549D02*
Y388700D01*
X471600Y363430D02*
Y390580D01*
X468420Y353830D02*
X476140Y361549D01*
X466540Y358370D02*
X471600Y363430D01*
X464123Y358370D02*
X466540D01*
X514088Y337730D02*
X514500Y337318D01*
X468894Y331666D02*
X489216D01*
X495280Y337730D02*
X514088D01*
X463408Y334705D02*
X465855D01*
X468894Y331666D01*
X487335Y336206D02*
X493399Y342270D01*
X470774Y336206D02*
X487335D01*
X514270Y342270D02*
X514500Y342500D01*
X462451Y335662D02*
X463408Y334705D01*
X489216Y331666D02*
X495280Y337730D01*
X469065Y337915D02*
Y340362D01*
X493399Y342270D02*
X514270D01*
X469065Y337915D02*
X470774Y336206D01*
X468108Y341318D02*
X469065Y340362D01*
D13*
X706500Y35000D02*
D03*
X686500D02*
D03*
X656500D02*
D03*
X786500D02*
D03*
X756500D02*
D03*
X726500D02*
D03*
X736500D02*
D03*
X776500D02*
D03*
X746500D02*
D03*
X676500D02*
D03*
X696500D02*
D03*
X766500D02*
D03*
X666500D02*
D03*
X716500D02*
D03*
X636500D02*
D03*
X536500D02*
D03*
X626500D02*
D03*
X596500D02*
D03*
X466500D02*
D03*
X486500D02*
D03*
X556500D02*
D03*
X526500D02*
D03*
X586500D02*
D03*
X616500D02*
D03*
X506500D02*
D03*
X516500D02*
D03*
X546500D02*
D03*
X476500D02*
D03*
X496500D02*
D03*
X606500D02*
D03*
X646500D02*
D03*
X816500D02*
D03*
X866500D02*
D03*
X856500D02*
D03*
X946500D02*
D03*
X886500D02*
D03*
X836500D02*
D03*
X896500D02*
D03*
X806500D02*
D03*
X906500D02*
D03*
X796500D02*
D03*
X926500D02*
D03*
X826500D02*
D03*
X876500D02*
D03*
X916500D02*
D03*
X846500D02*
D03*
X936500D02*
D03*
X956500D02*
D03*
D14*
X456500Y40000D02*
D03*
D15*
X462250Y430000D02*
D03*
D16*
Y230000D02*
D03*
D17*
X232300Y553170D02*
D03*
X257700D02*
D03*
D18*
X283100D02*
D03*
D19*
X133070Y507450D02*
D03*
D20*
X107670D02*
D03*
D21*
X75000Y93500D02*
D03*
Y632500D02*
D03*
D22*
X206520Y330520D02*
D03*
X756520D02*
D03*
D23*
X440000Y330000D02*
X450850D01*
X455065Y325786D01*
Y323075D02*
Y325786D01*
Y323075D02*
X455830Y322310D01*
X440000Y365000D02*
X450690D01*
X454045Y368355D01*
Y374165D01*
X621330Y61661D02*
Y78380D01*
X618500Y58831D02*
X621330Y61661D01*
X619790Y79920D02*
X621330Y78380D01*
X294540Y145380D02*
X454790D01*
X257700Y182220D02*
X294540Y145380D01*
X257700Y182220D02*
Y553170D01*
X473663Y67290D02*
Y126507D01*
X454790Y145380D02*
X473663Y126507D01*
Y66127D02*
Y67290D01*
X133070Y507450D02*
X186580D01*
X232300Y553170D01*
X618500Y37000D02*
Y58831D01*
X776660Y35160D02*
Y63030D01*
X780345Y66715D02*
X787805D01*
X776660Y63030D02*
X780345Y66715D01*
X776500Y35000D02*
X776660Y35160D01*
X787805Y66715D02*
X788570Y67480D01*
X956500Y35000D02*
Y69100D01*
X954780Y70820D02*
X956500Y69100D01*
X634270Y65598D02*
X636213Y67541D01*
X628730Y61037D02*
Y68242D01*
X586500Y35000D02*
Y71060D01*
X587660Y72220D01*
X486500Y35000D02*
X488350Y36850D01*
Y60500D01*
X495980Y68130D01*
X479528Y70720D02*
X480610D01*
X476098Y67290D02*
X479528Y70720D01*
X474825Y67290D02*
X476098D01*
X473663Y66127D02*
X474825Y67290D01*
X404880Y415000D02*
X440000D01*
X404810Y415070D02*
X404880Y415000D01*
X405000Y420000D02*
X440000D01*
X404810Y420190D02*
X405000Y420000D01*
X405150Y245000D02*
X440000D01*
X404810Y245340D02*
X405150Y245000D01*
X404910Y240000D02*
X440000D01*
X404810Y239900D02*
X404910Y240000D01*
X466500Y61450D02*
X471177Y66127D01*
X476500Y35000D02*
Y63290D01*
X473663Y66127D02*
X476500Y63290D01*
X471177Y66127D02*
X473663D01*
X466500Y35000D02*
Y61450D01*
X456500Y40000D02*
Y68640D01*
X462760Y74900D01*
X454045Y374165D02*
X454810Y374930D01*
X542370Y112720D02*
X556500Y98590D01*
X536690Y118400D02*
X542370Y112720D01*
X536690Y118400D02*
Y128210D01*
X556500Y35000D02*
Y98590D01*
X568320Y154140D02*
X568430Y154250D01*
X568320Y138240D02*
Y154140D01*
X669790Y72589D02*
X671480Y70899D01*
Y61530D02*
Y70899D01*
X669790Y72589D02*
Y83040D01*
X666500Y35000D02*
X668500Y37000D01*
Y58550D01*
X671480Y61530D01*
X646500Y35000D02*
X646845Y35345D01*
Y77985D01*
X647190Y78330D01*
X616500Y35000D02*
X618500Y37000D01*
X716770Y68870D02*
X716940Y68700D01*
X704630Y68870D02*
X716770D01*
X696500Y35000D02*
Y60740D01*
X704630Y68870D01*
X706500Y35000D02*
X708500Y37000D01*
Y60260D01*
X716940Y68700D01*
X736500Y35000D02*
X736695Y35195D01*
Y68675D01*
X736890Y68870D01*
X746500Y35000D02*
X748500Y37000D01*
Y60370D01*
X757180Y69050D01*
X806500Y35000D02*
X808500Y37000D01*
Y59850D01*
X816310Y67660D01*
X836500Y35000D02*
Y61618D01*
X841460Y66578D01*
Y67660D01*
X846500Y35000D02*
Y61538D01*
X841460Y66578D02*
X846500Y61538D01*
X926500Y35000D02*
Y62996D01*
X932040Y68536D01*
Y68770D01*
X916500Y35000D02*
Y58750D01*
X906560Y68690D02*
X916500Y58750D01*
X886500Y35000D02*
X886880Y35380D01*
Y68310D01*
X887260Y68690D01*
X876500Y35000D02*
Y60140D01*
X868560Y68080D02*
X876500Y60140D01*
X440000Y400000D02*
X454028D01*
X455878Y398150D01*
X456960D01*
X489044Y370289D02*
Y371328D01*
X490297Y377146D02*
X492579Y374863D01*
X485297Y375075D02*
Y381702D01*
X490297Y377146D02*
Y379631D01*
X489044Y370289D02*
X490640Y368692D01*
X493618Y374863D02*
X495215Y373267D01*
X485297Y381702D02*
X491095Y387500D01*
X495215Y373267D02*
X496297D01*
X485297Y375075D02*
X489044Y371328D01*
X490297Y379631D02*
X493166Y382500D01*
X492579Y374863D02*
X493618D01*
X490640Y367610D02*
Y368692D01*
X491095Y387500D02*
X514500D01*
X493166Y382500D02*
X514500D01*
X484547Y313535D02*
X488294Y309788D01*
X484547Y320162D02*
X491885Y327500D01*
X489547Y315606D02*
X491829Y313323D01*
X491885Y327500D02*
X514500D01*
X491829Y313323D02*
X492868D01*
X494464Y311727D01*
X484547Y313535D02*
Y320162D01*
X488294Y308749D02*
X489890Y307152D01*
X489547Y315606D02*
Y318091D01*
X488294Y308749D02*
Y309788D01*
X489547Y318091D02*
X493956Y322500D01*
X514500D01*
X678500Y56027D02*
X678730Y56257D01*
X678500Y37000D02*
Y56027D01*
X676500Y35000D02*
X678500Y37000D01*
X684270Y56257D02*
X684500Y56027D01*
X684270Y56257D02*
Y58743D01*
X684270Y58743D01*
X678730Y56257D02*
Y61037D01*
X684270Y58743D02*
Y63763D01*
X684735Y64227D01*
Y66755D01*
X685500Y67520D01*
X677500D02*
X678265Y66755D01*
Y64227D02*
Y66755D01*
Y64227D02*
X678730Y63763D01*
Y61037D02*
Y63763D01*
X678730Y61037D02*
X678730Y61037D01*
X684500Y37000D02*
X686500Y35000D01*
X684500Y37000D02*
Y56027D01*
X628730Y61037D02*
X628730Y61037D01*
X628730Y56257D02*
Y61037D01*
X628500Y56027D02*
X628730Y56257D01*
X628500Y37000D02*
Y56027D01*
X626500Y35000D02*
X628500Y37000D01*
X634500D02*
X636500Y35000D01*
X634270Y58743D02*
Y65598D01*
X634270Y56257D02*
X634500Y56027D01*
Y37000D02*
Y56027D01*
X634270Y58743D02*
X634270Y58743D01*
X634270Y56257D02*
Y58743D01*
X489890Y306070D02*
Y307152D01*
X494464Y311727D02*
X495547D01*
D24*
X427090Y197650D02*
X439900D01*
X405500D02*
X427090D01*
X536500Y35000D02*
Y88240D01*
X427090Y197650D02*
X536500Y88240D01*
X359860Y197650D02*
X360130Y197380D01*
X381510D01*
X439900Y197650D02*
X546500Y91050D01*
Y35000D02*
Y91050D01*
D25*
X619790Y79920D02*
D03*
X615330Y64146D02*
D03*
X636213Y67541D02*
D03*
X628207Y68242D02*
D03*
X607500Y67630D02*
D03*
X480610Y70720D02*
D03*
X381510Y197380D02*
D03*
X462760Y74900D02*
D03*
X454810Y374930D02*
D03*
X455830Y322310D02*
D03*
X542370Y112720D02*
D03*
X568320Y138240D02*
D03*
X669790Y83040D02*
D03*
X657480Y66410D02*
D03*
X665480D02*
D03*
X647190Y78330D02*
D03*
X716940Y68700D02*
D03*
X736890Y68870D02*
D03*
X757180Y69050D02*
D03*
X788570Y67480D02*
D03*
X816310Y67660D02*
D03*
X841460D02*
D03*
X868560Y68080D02*
D03*
X887260Y68690D02*
D03*
X906560D02*
D03*
X932040Y68770D02*
D03*
X933750Y97730D02*
D03*
X694460Y81990D02*
D03*
X534770Y397540D02*
D03*
X456960Y398150D02*
D03*
X550450Y448030D02*
D03*
X461040Y352100D02*
D03*
Y360100D02*
D03*
X490640Y367610D02*
D03*
X496297Y373267D02*
D03*
X468108Y341318D02*
D03*
X462451Y335662D02*
D03*
X685500Y67520D02*
D03*
X677500D02*
D03*
X495547Y311727D02*
D03*
X489890Y306070D02*
D03*
D36*
X507250Y433500D02*
D03*
Y226500D02*
D03*
D37*
X514500Y422500D02*
D03*
X440000Y420000D02*
D03*
X514500Y417500D02*
D03*
X440000Y415000D02*
D03*
X514500Y412500D02*
D03*
X440000Y410000D02*
D03*
X514500Y407500D02*
D03*
X440000Y405000D02*
D03*
X514500Y402500D02*
D03*
X440000Y400000D02*
D03*
X514500Y397500D02*
D03*
X440000Y395000D02*
D03*
X514500Y392500D02*
D03*
X440000Y390000D02*
D03*
X514500Y387500D02*
D03*
X440000Y385000D02*
D03*
X514500Y382500D02*
D03*
X440000Y380000D02*
D03*
X514500Y377500D02*
D03*
X440000Y375000D02*
D03*
X514500Y372500D02*
D03*
X440000Y370000D02*
D03*
X514500Y367500D02*
D03*
X440000Y365000D02*
D03*
X514500Y362500D02*
D03*
X440000Y360000D02*
D03*
X514500Y357500D02*
D03*
X440000Y355000D02*
D03*
X514500Y352500D02*
D03*
X440000Y350000D02*
D03*
X514500Y347500D02*
D03*
X440000Y345000D02*
D03*
X514500Y342500D02*
D03*
X440000Y340000D02*
D03*
X514500Y337500D02*
D03*
X440000Y335000D02*
D03*
X514500Y332500D02*
D03*
X440000Y330000D02*
D03*
X514500Y327500D02*
D03*
X440000Y325000D02*
D03*
X514500Y322500D02*
D03*
X440000Y320000D02*
D03*
X514500Y317500D02*
D03*
X440000Y315000D02*
D03*
X514500Y292500D02*
D03*
X440000Y290000D02*
D03*
X514500Y287500D02*
D03*
X440000Y285000D02*
D03*
X514500Y282500D02*
D03*
X440000Y280000D02*
D03*
X514500Y277500D02*
D03*
X440000Y275000D02*
D03*
X514500Y272500D02*
D03*
X440000Y270000D02*
D03*
X514500Y267500D02*
D03*
X440000Y265000D02*
D03*
X514500Y262500D02*
D03*
X440000Y260000D02*
D03*
X514500Y257500D02*
D03*
X440000Y255000D02*
D03*
X514500Y252500D02*
D03*
X440000Y250000D02*
D03*
X514500Y247500D02*
D03*
X440000Y245000D02*
D03*
X514500Y242500D02*
D03*
X440000Y240000D02*
D03*
X514500Y237500D02*
D03*
D38*
X617740Y154200D02*
D03*
Y170200D02*
D03*
X599350Y154200D02*
D03*
Y170200D02*
D03*
X568430Y154250D02*
D03*
Y170250D02*
D03*
X549550Y480580D02*
D03*
Y464580D02*
D03*
X511950Y464930D02*
D03*
Y480930D02*
D03*
X478570Y465630D02*
D03*
Y481630D02*
D03*
X650810Y154200D02*
D03*
Y170200D02*
D03*
X668680Y154200D02*
D03*
Y170200D02*
D03*
D39*
X536690Y128210D02*
D03*
X552690D02*
D03*
D40*
X359860Y168650D02*
D03*
Y197650D02*
D03*
X405500Y168650D02*
D03*
Y197650D02*
D03*
X359860Y493610D02*
D03*
Y464610D02*
D03*
X404120Y493610D02*
D03*
Y464610D02*
D03*
D41*
X404810Y415070D02*
Y420190D01*
Y245340D02*
Y415070D01*
Y420190D02*
Y463920D01*
Y239900D02*
Y245340D01*
Y198340D02*
Y239900D01*
X359860Y197650D02*
X405500D01*
X359860Y464610D02*
X404120D01*
X404810Y198340D02*
X405500Y197650D01*
X404120Y464610D02*
X404810Y463920D01*
M02*
