G04*
G04 #@! TF.GenerationSoftware,Altium Limited,Altium Designer,20.0.13 (296)*
G04*
G04 Layer_Color=32896*
%FSLAX44Y44*%
%MOMM*%
G71*
G01*
G75*
%ADD10C,0.2000*%
%ADD11C,0.2540*%
%ADD45C,0.1270*%
%ADD46R,2.8000X0.5500*%
D10*
X528750Y237500D02*
G03*
X528750Y237500I-1000J0D01*
G01*
X311200Y553170D02*
G03*
X311200Y553170I-1000J0D01*
G01*
X622240Y160700D02*
Y163700D01*
X613240Y160700D02*
Y163700D01*
X603850Y160700D02*
Y163700D01*
X594850Y160700D02*
Y163700D01*
X572930Y160750D02*
Y163750D01*
X563930Y160750D02*
Y163750D01*
X543190Y123710D02*
X546190D01*
X543190Y132710D02*
X546190D01*
X545050Y471080D02*
Y474080D01*
X554050Y471080D02*
Y474080D01*
X516450Y471430D02*
Y474430D01*
X507450Y471430D02*
Y474430D01*
X483070Y472130D02*
Y475130D01*
X474070Y472130D02*
Y475130D01*
X655310Y160700D02*
Y163700D01*
X646310Y160700D02*
Y163700D01*
X673180Y160700D02*
Y163700D01*
X664180Y160700D02*
Y163700D01*
X345860Y186150D02*
X373860D01*
Y180150D02*
Y186150D01*
X345860Y180150D02*
Y186150D01*
X391500D02*
X419500D01*
Y180150D02*
Y186150D01*
X391500Y180150D02*
Y186150D01*
X345860Y476110D02*
X373860D01*
X345860D02*
Y482110D01*
X373860Y476110D02*
Y482110D01*
X390120Y476110D02*
X418120D01*
X390120D02*
Y482110D01*
X418120Y476110D02*
Y482110D01*
D11*
X309646Y595773D02*
Y590442D01*
X306980Y587776D01*
X304314Y590442D01*
Y595773D01*
X301649Y587776D02*
Y595773D01*
X297650D01*
X296317Y594440D01*
Y591775D01*
X297650Y590442D01*
X301649D01*
X298983D02*
X296317Y587776D01*
X293651D02*
X290985D01*
X292318D01*
Y595773D01*
X293651Y594440D01*
X573276Y184402D02*
Y192399D01*
X569277D01*
X567944Y191066D01*
Y188401D01*
X569277Y187068D01*
X573276D01*
X570610D02*
X567944Y184402D01*
X565279Y185735D02*
X563946Y184402D01*
X561280D01*
X559947Y185735D01*
Y191066D01*
X561280Y192399D01*
X563946D01*
X565279Y191066D01*
Y189734D01*
X563946Y188401D01*
X559947D01*
X673606Y184402D02*
Y192399D01*
X669607D01*
X668274Y191066D01*
Y188401D01*
X669607Y187068D01*
X673606D01*
X670940D02*
X668274Y184402D01*
X665609Y191066D02*
X664276Y192399D01*
X661610D01*
X660277Y191066D01*
Y189734D01*
X661610Y188401D01*
X660277Y187068D01*
Y185735D01*
X661610Y184402D01*
X664276D01*
X665609Y185735D01*
Y187068D01*
X664276Y188401D01*
X665609Y189734D01*
Y191066D01*
X664276Y188401D02*
X661610D01*
X655826Y184402D02*
Y192399D01*
X651827D01*
X650494Y191066D01*
Y188401D01*
X651827Y187068D01*
X655826D01*
X653160D02*
X650494Y184402D01*
X647829Y192399D02*
X642497D01*
Y191066D01*
X647829Y185735D01*
Y184402D01*
X483614Y495806D02*
Y503803D01*
X479615D01*
X478282Y502471D01*
Y499805D01*
X479615Y498472D01*
X483614D01*
X480948D02*
X478282Y495806D01*
X470285Y503803D02*
X472951Y502471D01*
X475617Y499805D01*
Y497139D01*
X474284Y495806D01*
X471618D01*
X470285Y497139D01*
Y498472D01*
X471618Y499805D01*
X475617D01*
X516888Y495044D02*
Y503041D01*
X512889D01*
X511556Y501708D01*
Y499043D01*
X512889Y497710D01*
X516888D01*
X514222D02*
X511556Y495044D01*
X503559Y503041D02*
X508891D01*
Y499043D01*
X506225Y500376D01*
X504892D01*
X503559Y499043D01*
Y496377D01*
X504892Y495044D01*
X507558D01*
X508891Y496377D01*
X554480Y494790D02*
Y502787D01*
X550481D01*
X549148Y501455D01*
Y498789D01*
X550481Y497456D01*
X554480D01*
X551814D02*
X549148Y494790D01*
X542484D02*
Y502787D01*
X546483Y498789D01*
X541151D01*
X622806Y184402D02*
Y192399D01*
X618807D01*
X617474Y191066D01*
Y188401D01*
X618807Y187068D01*
X622806D01*
X620140D02*
X617474Y184402D01*
X614809Y191066D02*
X613476Y192399D01*
X610810D01*
X609477Y191066D01*
Y189734D01*
X610810Y188401D01*
X612143D01*
X610810D01*
X609477Y187068D01*
Y185735D01*
X610810Y184402D01*
X613476D01*
X614809Y185735D01*
X604264Y184402D02*
Y192399D01*
X600265D01*
X598932Y191066D01*
Y188401D01*
X600265Y187068D01*
X604264D01*
X601598D02*
X598932Y184402D01*
X590935D02*
X596267D01*
X590935Y189734D01*
Y191066D01*
X592268Y192399D01*
X594934D01*
X596267Y191066D01*
X556766Y143254D02*
Y151251D01*
X552767D01*
X551434Y149918D01*
Y147253D01*
X552767Y145920D01*
X556766D01*
X554100D02*
X551434Y143254D01*
X548769D02*
X546103D01*
X547436D01*
Y151251D01*
X548769Y149918D01*
X368554Y518473D02*
X369887Y519805D01*
X372553D01*
X373886Y518473D01*
Y513141D01*
X372553Y511808D01*
X369887D01*
X368554Y513141D01*
X361890Y511808D02*
Y519805D01*
X365889Y515807D01*
X360557D01*
X412750Y518473D02*
X414083Y519805D01*
X416749D01*
X418082Y518473D01*
Y513141D01*
X416749Y511808D01*
X414083D01*
X412750Y513141D01*
X410085Y518473D02*
X408752Y519805D01*
X406086D01*
X404753Y518473D01*
Y517140D01*
X406086Y515807D01*
X407419D01*
X406086D01*
X404753Y514474D01*
Y513141D01*
X406086Y511808D01*
X408752D01*
X410085Y513141D01*
X368554Y222309D02*
X369887Y223641D01*
X372553D01*
X373886Y222309D01*
Y216977D01*
X372553Y215644D01*
X369887D01*
X368554Y216977D01*
X360557Y215644D02*
X365889D01*
X360557Y220976D01*
Y222309D01*
X361890Y223641D01*
X364556D01*
X365889Y222309D01*
X414020D02*
X415353Y223641D01*
X418019D01*
X419352Y222309D01*
Y216977D01*
X418019Y215644D01*
X415353D01*
X414020Y216977D01*
X411355Y215644D02*
X408689D01*
X410022D01*
Y223641D01*
X411355Y222309D01*
X431470Y436399D02*
X434136D01*
X432803D01*
Y429734D01*
X434136Y428401D01*
X435469D01*
X436802Y429734D01*
X428804Y428401D02*
X426138D01*
X427471D01*
Y436399D01*
X428804Y435066D01*
D45*
X443950Y439500D02*
X452250D01*
X472250D02*
X489750D01*
X507250Y297500D02*
Y312500D01*
X443950Y220500D02*
X489750D01*
X443950D02*
Y235000D01*
Y295000D02*
Y310000D01*
Y425000D02*
Y439500D01*
X210050Y529070D02*
X305350D01*
Y577370D01*
X210050Y529070D02*
Y577370D01*
X305350D01*
D46*
X359860Y183400D02*
D03*
X405500Y183400D02*
D03*
X359860Y478860D02*
D03*
X404121Y478860D02*
D03*
M02*
