G04*
G04 #@! TF.GenerationSoftware,Altium Limited,Altium Designer,20.0.13 (296)*
G04*
G04 Layer_Physical_Order=1*
G04 Layer_Color=255*
%FSLAX44Y44*%
%MOMM*%
G71*
G01*
G75*
%ADD10C,0.2000*%
%ADD13R,0.7000X4.2000*%
%ADD14R,0.7000X3.2000*%
%ADD15C,1.6500*%
%ADD16C,1.1500*%
%ADD17C,1.2180*%
%ADD18R,1.2180X1.2180*%
%ADD19R,1.5000X1.5000*%
%ADD20C,1.5000*%
%ADD21C,2.8800*%
%ADD22C,3.2000*%
%ADD23C,0.3000*%
%ADD24C,0.5000*%
%ADD25C,0.7000*%
G36*
X663017Y75127D02*
X664930Y74334D01*
X674050D01*
X675948Y72880D01*
X675948Y72880D01*
X675948D01*
X676156Y71834D01*
X676037Y71785D01*
X674056Y70964D01*
X672629Y67520D01*
X674056Y64076D01*
X677500Y62649D01*
X679583Y63512D01*
X681500Y63949D01*
X683417Y63512D01*
X685500Y62649D01*
X688944Y64076D01*
X690371Y67520D01*
X688944Y70964D01*
X685500Y72391D01*
X683417Y71528D01*
X681500Y71091D01*
X679583Y71528D01*
X678536Y71962D01*
X678385Y72024D01*
X678468Y73023D01*
X679602Y75053D01*
X679780Y75127D01*
X683937Y79284D01*
X690710D01*
X691016Y78546D01*
X694460Y77119D01*
X697904Y78546D01*
X698210Y79284D01*
X763139D01*
X773794Y68629D01*
Y60548D01*
X772026Y58780D01*
X665935Y58783D01*
Y61728D01*
X668924Y62966D01*
X670351Y66410D01*
X668924Y69854D01*
X665480Y71281D01*
X662036Y69854D01*
X660924Y69854D01*
X657480Y71281D01*
X654036Y69854D01*
X652609Y66410D01*
X654036Y62966D01*
X655053Y62545D01*
X655490Y61088D01*
X653737Y58783D01*
X644145Y58783D01*
X643110Y61283D01*
X644213Y62387D01*
X645006Y64300D01*
Y73733D01*
X644213Y75646D01*
X643896Y75964D01*
Y79694D01*
X645826Y81624D01*
X656520D01*
X663017Y75127D01*
D02*
G37*
G36*
X943794Y70069D02*
Y60545D01*
X942026Y58777D01*
X779206Y58780D01*
Y69750D01*
X778413Y71663D01*
X773102Y76974D01*
X774059Y79284D01*
X934579D01*
X943794Y70069D01*
D02*
G37*
G36*
X1020588Y138582D02*
X963000D01*
X962235Y138265D01*
X961918Y137500D01*
Y127500D01*
X962235Y126735D01*
X963000Y126418D01*
X963010Y126408D01*
X963000Y58777D01*
X949206Y58777D01*
Y71190D01*
X948413Y73103D01*
X937613Y83903D01*
X935700Y84696D01*
X698210D01*
X697904Y85434D01*
X694460Y86861D01*
X691016Y85434D01*
X690710Y84696D01*
X682816D01*
X680903Y83903D01*
X676745Y79746D01*
X666051D01*
X659554Y86243D01*
X657640Y87036D01*
X644705D01*
X642791Y86243D01*
X639277Y82729D01*
X638484Y80815D01*
Y74843D01*
X638817Y74040D01*
X636903Y72126D01*
X636213Y72412D01*
X634372Y71649D01*
X631651Y71686D01*
X628207Y73113D01*
X624763Y71686D01*
X623336Y68242D01*
X624763Y64798D01*
X628207Y63371D01*
X630048Y64134D01*
X632769Y64097D01*
X634489Y63385D01*
X635544Y62896D01*
X635592Y60655D01*
X633747Y58783D01*
X620122Y58783D01*
X619015Y61283D01*
X620201Y64146D01*
X618774Y67590D01*
X615330Y69017D01*
X612314Y67768D01*
X610944Y71074D01*
X607500Y72501D01*
X604056Y71074D01*
X602629Y67630D01*
X604056Y64186D01*
X606050Y63360D01*
X606525Y60660D01*
X604967Y58784D01*
X581090Y58784D01*
X581090Y78390D01*
X575510Y83970D01*
X567450Y83970D01*
X561890Y78410D01*
X561890Y62998D01*
X559390Y61328D01*
X559206Y61404D01*
Y102139D01*
X570723Y113657D01*
X571516Y115570D01*
Y134693D01*
X571764Y134796D01*
X573191Y138240D01*
X571764Y141684D01*
X568320Y143111D01*
X564876Y141684D01*
X563449Y138240D01*
X564876Y134796D01*
X566104Y134287D01*
Y116691D01*
X554587Y105173D01*
X553794Y103260D01*
Y60553D01*
X552026Y58785D01*
X530288Y58785D01*
Y101270D01*
X529179Y103949D01*
X529179Y103949D01*
X433069Y200059D01*
X430390Y201168D01*
X430390Y201168D01*
X384123D01*
X381510Y202251D01*
X378066Y200824D01*
X376639Y197380D01*
X378066Y193936D01*
X381510Y192509D01*
X384123Y193592D01*
X428821D01*
X522712Y99701D01*
Y60553D01*
X520944Y58785D01*
X479596Y58786D01*
Y60913D01*
X478803Y62826D01*
X477853Y63777D01*
X480126Y66050D01*
X480610Y65849D01*
X484054Y67276D01*
X485481Y70720D01*
X484054Y74164D01*
X480610Y75591D01*
X477166Y74164D01*
X475739Y70720D01*
X476150Y69728D01*
X473219Y66797D01*
X472631Y65376D01*
X460180D01*
X458267Y64583D01*
X454586Y60903D01*
X453794Y58990D01*
X453591Y58787D01*
X450000Y58787D01*
X450000Y107455D01*
X450209Y107664D01*
X450657Y107849D01*
X450657Y107850D01*
X450974Y107981D01*
X450974Y107981D01*
X451269Y108276D01*
X451269Y108276D01*
X451586Y109041D01*
X451586Y109041D01*
X451586Y109593D01*
X451586Y136948D01*
Y137202D01*
Y137202D01*
X451586Y137600D01*
X451586Y137600D01*
X451504Y137799D01*
Y138014D01*
X451504Y138014D01*
X451427Y138200D01*
X451286Y138341D01*
Y138341D01*
X451285Y138342D01*
X451275Y138352D01*
X451269Y138366D01*
X451269Y138366D01*
X451192Y138551D01*
X451051Y138693D01*
X450852Y138775D01*
X450700Y138927D01*
X450515Y139004D01*
X450514Y139004D01*
X450299Y139004D01*
X450101Y139086D01*
X450100Y139086D01*
X449094Y139086D01*
X0D01*
Y583918D01*
X127000D01*
X127765Y584235D01*
X128082Y585000D01*
Y677918D01*
X1020588D01*
Y138582D01*
D02*
G37*
%LPC*%
G36*
X257700Y560844D02*
X252274Y558596D01*
X250026Y553170D01*
X252274Y547743D01*
X257700Y545496D01*
X263126Y547743D01*
X264253Y550464D01*
X276010D01*
Y546080D01*
X290190D01*
Y560260D01*
X276010D01*
Y555876D01*
X264253D01*
X263126Y558596D01*
X257700Y560844D01*
D02*
G37*
G36*
X232300D02*
X226873Y558596D01*
X224626Y553170D01*
X226873Y547743D01*
X232300Y545496D01*
X237726Y547743D01*
X239974Y553170D01*
X237726Y558596D01*
X232300Y560844D01*
D02*
G37*
G36*
X108940Y517791D02*
Y508720D01*
X118011D01*
X115354Y515134D01*
X108940Y517791D01*
D02*
G37*
G36*
X106400Y517791D02*
X99986Y515134D01*
X97329Y508720D01*
X106400D01*
Y517791D01*
D02*
G37*
G36*
X141570Y515950D02*
X124570D01*
Y498950D01*
X141570D01*
Y515950D01*
D02*
G37*
G36*
X118011Y506180D02*
X108940D01*
Y497109D01*
X115354Y499766D01*
X118011Y506180D01*
D02*
G37*
G36*
X106400D02*
X97329D01*
X99986Y499766D01*
X106400Y497109D01*
Y506180D01*
D02*
G37*
G36*
X550450Y452901D02*
X547006Y451474D01*
X545579Y448030D01*
X547006Y444586D01*
X550450Y443159D01*
X553894Y444586D01*
X555321Y448030D01*
X553894Y451474D01*
X550450Y452901D01*
D02*
G37*
G36*
X462250Y440012D02*
X455170Y437080D01*
X452238Y430000D01*
X455170Y422920D01*
X462250Y419988D01*
X469330Y422920D01*
X472262Y430000D01*
X469330Y437080D01*
X462250Y440012D01*
D02*
G37*
G36*
X456960Y403021D02*
X453516Y401594D01*
X452089Y398150D01*
X453516Y394706D01*
X456960Y393279D01*
X460404Y394706D01*
X461831Y398150D01*
X460404Y401594D01*
X456960Y403021D01*
D02*
G37*
G36*
X534770Y402411D02*
X531326Y400984D01*
X529899Y397540D01*
X531326Y394096D01*
X534770Y392669D01*
X538214Y394096D01*
X539641Y397540D01*
X538214Y400984D01*
X534770Y402411D01*
D02*
G37*
G36*
X454810Y379801D02*
X451366Y378374D01*
X449939Y374930D01*
X451366Y371486D01*
X454810Y370059D01*
X458254Y371486D01*
X459681Y374930D01*
X458254Y378374D01*
X454810Y379801D01*
D02*
G37*
G36*
X496297Y378138D02*
X492853Y376711D01*
X491990Y374628D01*
X490943Y372963D01*
X489279Y371917D01*
X487196Y371054D01*
X485769Y367610D01*
X487196Y364166D01*
X490640Y362739D01*
X494084Y364166D01*
X494947Y366249D01*
X495993Y367914D01*
X497658Y368960D01*
X499741Y369823D01*
X501168Y373267D01*
X499741Y376711D01*
X496297Y378138D01*
D02*
G37*
G36*
X461040Y364971D02*
X457596Y363544D01*
X456169Y360100D01*
X457596Y356656D01*
X457596Y355544D01*
X456169Y352100D01*
X457596Y348656D01*
X461040Y347229D01*
X464484Y348656D01*
X465911Y352100D01*
X464484Y355544D01*
X464484Y356656D01*
X465911Y360100D01*
X464484Y363544D01*
X461040Y364971D01*
D02*
G37*
G36*
X468108Y346189D02*
X464664Y344762D01*
X463801Y342679D01*
X462755Y341015D01*
X461091Y339969D01*
X459007Y339106D01*
X457581Y335662D01*
X459007Y332217D01*
X462451Y330791D01*
X465896Y332217D01*
X466759Y334301D01*
X467805Y335965D01*
X469469Y337011D01*
X471553Y337874D01*
X472979Y341318D01*
X471553Y344762D01*
X468108Y346189D01*
D02*
G37*
G36*
X455830Y327181D02*
X452386Y325754D01*
X450959Y322310D01*
X452386Y318866D01*
X455830Y317439D01*
X459274Y318866D01*
X460701Y322310D01*
X459274Y325754D01*
X455830Y327181D01*
D02*
G37*
G36*
X495547Y316598D02*
X492103Y315171D01*
X491240Y313088D01*
X490193Y311423D01*
X488529Y310377D01*
X486446Y309514D01*
X485019Y306070D01*
X486446Y302626D01*
X489890Y301199D01*
X493334Y302626D01*
X494197Y304709D01*
X495243Y306374D01*
X496908Y307420D01*
X498991Y308283D01*
X500418Y311727D01*
X498991Y315171D01*
X495547Y316598D01*
D02*
G37*
G36*
X462250Y237306D02*
X457084Y235166D01*
X454944Y230000D01*
X457084Y224834D01*
X462250Y222694D01*
X467416Y224834D01*
X469556Y230000D01*
X467416Y235166D01*
X462250Y237306D01*
D02*
G37*
G36*
X542370Y117591D02*
X538926Y116164D01*
X537499Y112720D01*
X538926Y109276D01*
X542370Y107849D01*
X545814Y109276D01*
X547241Y112720D01*
X545814Y116164D01*
X542370Y117591D01*
D02*
G37*
G36*
X462760Y79771D02*
X459316Y78344D01*
X457889Y74900D01*
X459316Y71456D01*
X462760Y70029D01*
X466204Y71456D01*
X467631Y74900D01*
X466204Y78344D01*
X462760Y79771D01*
D02*
G37*
%LPD*%
D10*
X615330Y64146D02*
Y66107D01*
X615500Y66277D01*
X615500Y66277D01*
X607500D02*
Y67630D01*
X609230Y59880D02*
X609230Y59881D01*
X613770Y58000D02*
X613770Y58000D01*
X609230Y56172D02*
Y59880D01*
X613770Y64547D02*
X615500Y66277D01*
X607500D02*
X609230Y64547D01*
X613770Y56172D02*
Y58000D01*
X609230Y59881D02*
Y64547D01*
X613770Y58000D02*
Y64547D01*
X663770Y58000D02*
Y63327D01*
X664000Y37500D02*
Y55942D01*
Y37500D02*
X666500Y35000D01*
X663770Y58000D02*
X663770Y58000D01*
X663770Y56172D02*
X664000Y55942D01*
X663770Y56172D02*
Y58000D01*
X659230Y59881D02*
Y63327D01*
X659230Y56172D02*
Y59880D01*
X659230Y59881D01*
X659000Y55942D02*
X659230Y56172D01*
X659000Y37500D02*
Y55942D01*
X656500Y35000D02*
X659000Y37500D01*
X614000D02*
Y55942D01*
X613770Y56172D02*
X614000Y55942D01*
X609000Y55942D02*
X609230Y56172D01*
X609000Y37500D02*
Y55942D01*
X606500Y35000D02*
X609000Y37500D01*
X614000D02*
X616500Y35000D01*
D13*
X736500D02*
D03*
X716500D02*
D03*
X686500D02*
D03*
X756500D02*
D03*
X706500D02*
D03*
X726500D02*
D03*
X746500D02*
D03*
X766500D02*
D03*
X696500D02*
D03*
X656500D02*
D03*
X666500D02*
D03*
X676500D02*
D03*
X786500D02*
D03*
X456500D02*
D03*
X466500D02*
D03*
X536500D02*
D03*
X506500D02*
D03*
X476500D02*
D03*
X526500D02*
D03*
X486500D02*
D03*
X496500D02*
D03*
X516500D02*
D03*
X546500D02*
D03*
X556500D02*
D03*
X596500D02*
D03*
X646500D02*
D03*
X606500D02*
D03*
X626500D02*
D03*
X616500D02*
D03*
X586500D02*
D03*
X826500D02*
D03*
X896500D02*
D03*
X916500D02*
D03*
X836500D02*
D03*
X816500D02*
D03*
X796500D02*
D03*
X866500D02*
D03*
X806500D02*
D03*
X876500D02*
D03*
X886500D02*
D03*
X926500D02*
D03*
X956500D02*
D03*
X936500D02*
D03*
X906500D02*
D03*
X846500D02*
D03*
X856500D02*
D03*
D14*
X776500Y40000D02*
D03*
X636500D02*
D03*
X946500D02*
D03*
D15*
X462250Y430000D02*
D03*
D16*
Y230000D02*
D03*
D17*
X232300Y553170D02*
D03*
X257700D02*
D03*
D18*
X283100D02*
D03*
D19*
X133070Y507450D02*
D03*
D20*
X107670D02*
D03*
D21*
X75000Y93500D02*
D03*
Y632500D02*
D03*
D22*
X206520Y330520D02*
D03*
X756520D02*
D03*
D23*
X619790Y68172D02*
X625694Y62267D01*
Y35806D02*
Y62267D01*
X619790Y68172D02*
Y79920D01*
X852500Y63290D02*
X856500Y59290D01*
X852500Y63290D02*
Y63290D01*
X856500Y35000D02*
Y59290D01*
X848130Y67660D02*
X852500Y63290D01*
X841124Y67660D02*
X848130D01*
X257700Y553170D02*
X283100D01*
X625694Y35806D02*
X626500Y35000D01*
X674500Y37000D02*
X676500Y35000D01*
X674500Y37000D02*
Y59950D01*
X672070Y62380D02*
X674500Y59950D01*
X686500Y35000D02*
X688500Y37000D01*
Y59830D01*
X694310Y65640D01*
X596500Y35000D02*
Y72330D01*
X595360Y73470D02*
X596500Y72330D01*
X494990Y66410D02*
X515633D01*
X516500Y35000D02*
X517390Y35890D01*
Y64653D01*
X515633Y66410D02*
X517390Y64653D01*
X486500Y63820D02*
X490797Y68117D01*
X493283D01*
X494990Y66410D01*
X486500Y35000D02*
Y63820D01*
X480610Y70361D02*
Y70720D01*
X475133Y64884D02*
X480610Y70361D01*
X475133Y62670D02*
Y64884D01*
X467656Y62670D02*
X475133D01*
X460180D02*
X467656D01*
X466500Y35000D02*
Y61514D01*
X467656Y62670D01*
X476500Y35000D02*
X476890Y35390D01*
Y60913D01*
X475133Y62670D02*
X476890Y60913D01*
X456500Y58990D02*
X460180Y62670D01*
X456500Y35000D02*
Y58990D01*
X568320Y138240D02*
X568810Y137750D01*
Y115570D02*
Y137750D01*
X556500Y35000D02*
Y103260D01*
X568810Y115570D01*
X677866Y77040D02*
X682816Y81990D01*
X664930Y77040D02*
X677866D01*
X657640Y84330D02*
X664930Y77040D01*
X644705Y84330D02*
X657640D01*
X682816Y81990D02*
X764260D01*
X641190Y80815D02*
X644705Y84330D01*
X641190Y74843D02*
Y80815D01*
X638500Y60500D02*
X642300Y64300D01*
Y73733D01*
X641190Y74843D02*
X642300Y73733D01*
X646500Y35000D02*
X646845Y35345D01*
Y77985D01*
X647190Y78330D01*
X638500Y42000D02*
Y60500D01*
X716500Y35000D02*
X716720Y35220D01*
Y68480D01*
X716940Y68700D01*
X726500Y35000D02*
X728500Y37000D01*
Y60480D01*
X736890Y68870D01*
X756500Y35000D02*
X756840Y35340D01*
Y68710D01*
X757180Y69050D01*
X786500Y35000D02*
X787805Y36305D01*
Y66715D01*
X788570Y67480D01*
X816405Y35095D02*
X816500Y35000D01*
X816405Y35095D02*
Y67565D01*
X816310Y67660D02*
X816405Y67565D01*
X826500Y35000D02*
Y52500D01*
X830500Y56500D01*
Y57035D01*
X841124Y67660D01*
X866500Y35000D02*
Y64938D01*
X868560Y66998D01*
Y68080D01*
X896500Y35000D02*
Y59450D01*
X887260Y68690D02*
X896500Y59450D01*
X906500Y35000D02*
X906530Y35030D01*
Y68660D01*
X906560Y68690D01*
X936500Y35000D02*
Y63228D01*
X932040Y67688D02*
X936500Y63228D01*
X932040Y67688D02*
Y68770D01*
X956500Y35000D02*
Y74980D01*
X933750Y97730D02*
X956500Y74980D01*
X935700Y81990D02*
X946500Y71190D01*
X764260Y81990D02*
X935700D01*
X946500Y40000D02*
Y71190D01*
X776500Y40000D02*
Y69750D01*
X764260Y81990D02*
X776500Y69750D01*
X636500Y40000D02*
X638500Y42000D01*
D24*
X381510Y197380D02*
X430390D01*
X526500Y101270D01*
Y35000D02*
Y101270D01*
D25*
X619790Y79920D02*
D03*
X615330Y64146D02*
D03*
X636213Y67541D02*
D03*
X628207Y68242D02*
D03*
X607500Y67630D02*
D03*
X480610Y70720D02*
D03*
X381510Y197380D02*
D03*
X462760Y74900D02*
D03*
X454810Y374930D02*
D03*
X455830Y322310D02*
D03*
X542370Y112720D02*
D03*
X568320Y138240D02*
D03*
X669790Y83040D02*
D03*
X657480Y66410D02*
D03*
X665480D02*
D03*
X647190Y78330D02*
D03*
X716940Y68700D02*
D03*
X736890Y68870D02*
D03*
X757180Y69050D02*
D03*
X788570Y67480D02*
D03*
X816310Y67660D02*
D03*
X841460D02*
D03*
X868560Y68080D02*
D03*
X887260Y68690D02*
D03*
X906560D02*
D03*
X932040Y68770D02*
D03*
X933750Y97730D02*
D03*
X694460Y81990D02*
D03*
X534770Y397540D02*
D03*
X456960Y398150D02*
D03*
X550450Y448030D02*
D03*
X461040Y352100D02*
D03*
Y360100D02*
D03*
X490640Y367610D02*
D03*
X496297Y373267D02*
D03*
X468108Y341318D02*
D03*
X462451Y335662D02*
D03*
X685500Y67520D02*
D03*
X677500D02*
D03*
X495547Y311727D02*
D03*
X489890Y306070D02*
D03*
M02*
