G04*
G04 #@! TF.GenerationSoftware,Altium Limited,Altium Designer,20.0.13 (296)*
G04*
G04 Layer_Color=8388736*
%FSLAX44Y44*%
%MOMM*%
G71*
G01*
G75*
%ADD12R,51.8000X5.9750*%
%ADD13R,0.7000X4.2000*%
%ADD14R,0.7000X3.2000*%
%ADD15C,1.6500*%
%ADD16C,1.1500*%
%ADD17C,1.2180*%
%ADD18R,1.2180X1.2180*%
%ADD19R,1.5000X1.5000*%
%ADD20C,1.5000*%
%ADD21C,2.8800*%
%ADD22C,3.2000*%
D12*
X706500Y27375D02*
D03*
D13*
X736500Y35000D02*
D03*
X716500D02*
D03*
X686500D02*
D03*
X756500D02*
D03*
X706500D02*
D03*
X726500D02*
D03*
X746500D02*
D03*
X766500D02*
D03*
X696500D02*
D03*
X656500D02*
D03*
X666500D02*
D03*
X676500D02*
D03*
X786500D02*
D03*
X456500D02*
D03*
X466500D02*
D03*
X536500D02*
D03*
X506500D02*
D03*
X476500D02*
D03*
X526500D02*
D03*
X486500D02*
D03*
X496500D02*
D03*
X516500D02*
D03*
X546500D02*
D03*
X556500D02*
D03*
X596500D02*
D03*
X646500D02*
D03*
X606500D02*
D03*
X626500D02*
D03*
X616500D02*
D03*
X586500D02*
D03*
X826500D02*
D03*
X896500D02*
D03*
X916500D02*
D03*
X836500D02*
D03*
X816500D02*
D03*
X796500D02*
D03*
X866500D02*
D03*
X806500D02*
D03*
X876500D02*
D03*
X886500D02*
D03*
X926500D02*
D03*
X956500D02*
D03*
X936500D02*
D03*
X906500D02*
D03*
X846500D02*
D03*
X856500D02*
D03*
D14*
X776500Y40000D02*
D03*
X636500D02*
D03*
X946500D02*
D03*
D15*
X462250Y430000D02*
D03*
D16*
Y230000D02*
D03*
D17*
X232300Y553170D02*
D03*
X257700D02*
D03*
D18*
X283100D02*
D03*
D19*
X133070Y507450D02*
D03*
D20*
X107670D02*
D03*
D21*
X75000Y93500D02*
D03*
Y632500D02*
D03*
D22*
X206520Y330520D02*
D03*
X756520D02*
D03*
M02*
